<?xml version="1.0" encoding="utf-8"?>
<!-- Generator: Adobe Illustrator 16.0.0, SVG Export Plug-In . SVG Version: 6.00 Build 0)  -->
<!DOCTYPE svg PUBLIC "-//W3C//DTD SVG 1.1//EN" "http://www.w3.org/Graphics/SVG/1.1/DTD/svg11.dtd">
<svg version="1.1" id="Capa_1" xmlns="http://www.w3.org/2000/svg" xmlns:xlink="http://www.w3.org/1999/xlink" x="0px" y="0px"
	 width="94px" height="44px" viewBox="0 0 94 44" enable-background="new 0 0 94 44" xml:space="preserve">
<g>
	<path fill="#3F535D" d="M48,24.079V0h-2v24.079c-3.391,0.486-6,3.396-6,6.921c0,3.866,3.134,7,7,7s7-3.134,7-7
		C54,27.475,51.391,24.565,48,24.079z M47,35c-2.209,0-4-1.791-4-4s1.791-4,4-4s4,1.791,4,4S49.209,35,47,35z"/>
	<path fill="#3F535D" d="M89.109,34.126c-1.916,0-3.559,1.124-4.358,2.745v-0.057c0,0-0.429,1.301-3.724,1.301
		c-3.299,0-3.727-1.301-3.727-1.301v0.019c-0.809-1.601-2.438-2.707-4.339-2.707c-0.092,0-0.178,0.022-0.271,0.026l0.033-0.021
		c0,0-1.336,0.261-2.974-2.606c-1.642-2.867-0.75-3.907-0.75-3.907l-0.024,0.015c0.502-0.775,0.801-1.699,0.801-2.695
		c0-2.727-2.19-4.938-4.891-4.938C62.188,20,60,22.211,60,24.938c0,2.729,2.189,4.938,4.889,4.938c0.104,0,0.197-0.022,0.297-0.028
		l-0.037,0.021c0,0,1.33-0.276,2.979,2.606c1.313,2.295,1.01,3.406,0.832,3.77c-0.555,0.8-0.884,1.77-0.884,2.82
		c0,2.728,2.188,4.938,4.889,4.938c1.899,0,3.53-1.107,4.339-2.708v0.019c0,0,0.446-1.299,3.727-1.299
		c3.277,0,3.724,1.299,3.724,1.299v-0.056c0.8,1.619,2.44,2.743,4.356,2.743C91.811,44,94,41.79,94,39.063
		C94,36.336,91.811,34.126,89.109,34.126z M64.889,27.376c-1.333,0-2.414-1.091-2.414-2.438c0-1.346,1.081-2.438,2.414-2.438
		c1.334,0,2.414,1.092,2.414,2.438C67.303,26.285,66.223,27.376,64.889,27.376z M72.963,41.5c-1.333,0-2.414-1.092-2.414-2.438
		s1.081-2.437,2.414-2.437c1.334,0,2.414,1.091,2.414,2.437S74.297,41.5,72.963,41.5z M89.109,41.5
		c-1.334,0-2.414-1.092-2.414-2.438s1.08-2.437,2.414-2.437c1.333,0,2.414,1.091,2.414,2.437S90.442,41.5,89.109,41.5z"/>
	<path fill="#3F535D" d="M29.111,20c-2.7,0-4.891,2.211-4.891,4.938c0,0.996,0.299,1.92,0.801,2.695l-0.024-0.015
		c0,0,0.892,1.04-0.75,3.907c-1.638,2.867-2.974,2.606-2.974,2.606l0.033,0.021c-0.092-0.004-0.178-0.026-0.27-0.026
		c-1.9,0-3.53,1.106-4.339,2.707v-0.019c0,0-0.427,1.301-3.726,1.301c-3.295,0-3.724-1.301-3.724-1.301v0.057
		c-0.801-1.621-2.442-2.745-4.358-2.745c-2.7,0-4.889,2.21-4.889,4.937C0,41.79,2.189,44,4.891,44c1.916,0,3.557-1.124,4.358-2.745
		v0.056c0,0,0.446-1.299,3.724-1.299c3.279,0,3.726,1.299,3.726,1.299v-0.019C17.507,42.893,19.137,44,21.037,44
		c2.699,0,4.889-2.21,4.889-4.938c0-1.051-0.33-2.021-0.884-2.82c-0.178-0.362-0.479-1.475,0.832-3.77
		c1.647-2.884,2.978-2.606,2.978-2.606l-0.037-0.021c0.1,0.006,0.194,0.028,0.297,0.028c2.699,0,4.889-2.21,4.889-4.938
		C34,22.211,31.811,20,29.111,20z M4.89,41.501c-1.333,0-2.413-1.091-2.413-2.438c0-1.346,1.08-2.438,2.413-2.438
		c1.333,0,2.413,1.092,2.413,2.438C7.303,40.41,6.223,41.501,4.89,41.501z M21.037,41.501c-1.333,0-2.414-1.091-2.414-2.438
		c0-1.346,1.081-2.438,2.414-2.438c1.333,0,2.414,1.092,2.414,2.438C23.451,40.41,22.37,41.501,21.037,41.501z M29.111,27.376
		c-1.333,0-2.414-1.091-2.414-2.438c0-1.346,1.081-2.438,2.414-2.438c1.333,0,2.414,1.092,2.414,2.438
		C31.525,26.285,30.444,27.376,29.111,27.376z"/>
</g>
</svg>
