<?xml version="1.0" encoding="utf-8"?>
<!-- Generator: Adobe Illustrator 16.0.0, SVG Export Plug-In . SVG Version: 6.00 Build 0)  -->
<!DOCTYPE svg PUBLIC "-//W3C//DTD SVG 1.1//EN" "http://www.w3.org/Graphics/SVG/1.1/DTD/svg11.dtd">
<svg version="1.1" id="Capa_1" xmlns="http://www.w3.org/2000/svg" xmlns:xlink="http://www.w3.org/1999/xlink" x="0px" y="0px"
	 width="140px" height="56px" viewBox="0 0 140 56" enable-background="new 0 0 140 56" xml:space="preserve">
<g>
	<path id="e" fill="#3F535D" d="M18.103,12.218C8.228,12.218,0,16.399,0,29.017c0,9.996,5.533,16.291,18.357,16.291
		c15.096,0,16.063-9.927,16.063-9.927h-7.314c0,0-1.568,5.345-9.195,5.345c-6.211,0-10.679-4.189-10.679-10.061h27.953V26.98
		C35.186,21.172,31.492,12.218,18.103,12.218z M17.848,16.927c5.913,0,9.944,3.616,9.944,9.036H7.394
		C7.394,20.209,12.655,16.927,17.848,16.927z"/>
	<path id="b" fill="#3F535D" d="M35.181,0v38.971c0,2.213-0.158,5.318-0.158,5.318h6.977c0,0,0.25-2.23,0.25-4.27
		c0,0,3.447,5.384,12.819,5.384c9.87,0,16.573-6.841,16.573-16.641c0-9.117-6.157-16.449-16.557-16.449
		c-9.739,0-12.765,5.249-12.765,5.249V0H35.181z M53.283,17.134c6.703,0,10.965,4.965,10.965,11.629
		c0,7.146-4.923,11.82-10.917,11.82c-7.152,0-11.011-5.576-11.011-11.757C42.32,23.066,45.782,17.134,53.283,17.134z"/>
	<path id="a" fill="#3F535D" d="M88.979,12.218c-14.855,0-15.808,8.12-15.808,9.418h7.394c0,0,0.388-4.741,7.904-4.741
		c4.884,0,8.669,2.232,8.669,6.522v1.527H88.47c-11.509,0-17.593,3.361-17.593,10.182c0,6.712,5.621,10.364,13.219,10.364
		c10.354,0,13.688-5.711,13.688-5.711c0,2.271,0.176,4.51,0.176,4.51h6.573c0,0-0.255-2.774-0.255-4.55V24.396
		C104.278,14.335,96.149,12.218,88.979,12.218L88.979,12.218z M97.139,29.526v2.036c0,2.655-1.642,9.259-11.307,9.259
		c-5.292,0-7.562-2.637-7.562-5.695C78.271,29.562,85.912,29.526,97.139,29.526L97.139,29.526z"/>
	<path id="y" fill="#3F535D" d="M100.296,13.491h8.319l11.938,23.876l11.91-23.876H140L118.304,56h-7.904l6.261-11.851
		L100.296,13.491z"/>
</g>
</svg>
