<?xml version="1.0" encoding="UTF-8" standalone="no"?>
<!-- Generator: Adobe Illustrator 16.0.0, SVG Export Plug-In . SVG Version: 6.00 Build 0)  -->

<svg
   xmlns:dc="http://purl.org/dc/elements/1.1/"
   xmlns:cc="http://creativecommons.org/ns#"
   xmlns:rdf="http://www.w3.org/1999/02/22-rdf-syntax-ns#"
   xmlns:svg="http://www.w3.org/2000/svg"
   xmlns="http://www.w3.org/2000/svg"
   xmlns:xlink="http://www.w3.org/1999/xlink"
   xmlns:sodipodi="http://sodipodi.sourceforge.net/DTD/sodipodi-0.dtd"
   xmlns:inkscape="http://www.inkscape.org/namespaces/inkscape"
   version="1.1"
   id="Capa_1"
   x="0px"
   y="0px"
   width="129.98157"
   height="70"
   viewBox="0 0 129.98157 69.999999"
   enable-background="new 0 0 139 22"
   xml:space="preserve"
   sodipodi:docname="java.svg"
   inkscape:version="0.92.3 (2405546, 2018-03-11)"><metadata
   id="metadata33"><rdf:RDF><cc:Work
       rdf:about=""><dc:format>image/svg+xml</dc:format><dc:type
         rdf:resource="http://purl.org/dc/dcmitype/StillImage" /><dc:title></dc:title></cc:Work></rdf:RDF></metadata><defs
   id="defs31"><clipPath
     id="a"
     clipPathUnits="userSpaceOnUse"><path
       inkscape:connector-curvature="0"
       d="M 0,0 H 2467.7 V 3078.5 H 0 Z"
       id="path2" /></clipPath><linearGradient
     x1="26.648937"
     y1="20.603781"
     x2="135.66525"
     y2="114.39767"
     id="linearGradient1478"
     xlink:href="#linearGradient4689"
     gradientUnits="userSpaceOnUse"
     gradientTransform="matrix(0.562541,0,0,0.567972,-9.399749,-5.305317)" /><linearGradient
     id="linearGradient4689"><stop
       style="stop-color:#5a9fd4;stop-opacity:1"
       offset="0"
       id="stop4691" /><stop
       style="stop-color:#306998;stop-opacity:1"
       offset="1"
       id="stop4693" /></linearGradient><linearGradient
     x1="150.96111"
     y1="192.35176"
     x2="112.03144"
     y2="137.27299"
     id="linearGradient1475"
     xlink:href="#linearGradient4671"
     gradientUnits="userSpaceOnUse"
     gradientTransform="matrix(0.562541,0,0,0.567972,-9.399749,-5.305317)" /><linearGradient
     id="linearGradient4671"><stop
       style="stop-color:#ffd43b;stop-opacity:1"
       offset="0"
       id="stop4673" /><stop
       style="stop-color:#ffe873;stop-opacity:1"
       offset="1"
       id="stop4675" /></linearGradient><radialGradient
     cx="61.518883"
     cy="132.28575"
     r="29.036913"
     fx="61.518883"
     fy="132.28575"
     id="radialGradient1480"
     xlink:href="#linearGradient2795"
     gradientUnits="userSpaceOnUse"
     gradientTransform="matrix(2.382716e-8,-0.296405,1.43676,4.683673e-7,-128.544,150.5202)" /><linearGradient
     id="linearGradient2795"><stop
       style="stop-color:#b8b8b8;stop-opacity:0.49803922"
       offset="0"
       id="stop2797" /><stop
       style="stop-color:#7f7f7f;stop-opacity:0"
       offset="1"
       id="stop2799" /></linearGradient></defs><sodipodi:namedview
   pagecolor="#ffffff"
   bordercolor="#666666"
   borderopacity="1"
   objecttolerance="10"
   gridtolerance="10"
   guidetolerance="10"
   inkscape:pageopacity="0"
   inkscape:pageshadow="2"
   inkscape:window-width="1920"
   inkscape:window-height="1000"
   id="namedview29"
   showgrid="false"
   fit-margin-top="0"
   fit-margin-left="0"
   fit-margin-right="0"
   fit-margin-bottom="0"
   inkscape:zoom="3.9882858"
   inkscape:cx="53.705208"
   inkscape:cy="26.126807"
   inkscape:window-x="-11"
   inkscape:window-y="-11"
   inkscape:window-maximized="1"
   inkscape:current-layer="Capa_1"
   inkscape:pagecheckerboard="true" />

<path
   d="m 84.798906,51.578908 c -0.01844,0.483682 -1.157245,1.130086 -1.530036,1.366568 -1.716182,1.085478 -4.181932,1.805641 -5.790962,0.196611 -1.55645,-1.555456 -1.118372,-4.461024 0.560682,-5.489941 0.845007,-0.51209 1.939208,-0.750568 3.087732,-0.847753 0.917772,-0.07695 2.794682,-0.242463 3.654144,-0.14428 z m -11.605845,-15.002077 0.67157,2.647659 c 1.132077,-0.275608 1.812618,-0.674558 3.517836,-1.011474 1.327943,-0.255912 2.772257,-0.402942 4.193645,-0.221025 1.432852,0.18415 2.232009,0.720409 2.723415,1.78346 0.249191,0.535261 0.384502,1.16796 0.453777,1.828822 l -0.01669,2.14155 c -0.09345,0.04964 -4.282855,0.31448 -4.883407,0.390482 -4.180935,0.536258 -8.389032,2.808138 -7.734904,8.061598 0.406929,3.268641 2.168962,4.757061 5.47075,5.156265 1.810377,0.218793 3.006745,0.01046 4.504885,-0.623978 0.632698,-0.267875 1.22054,-0.575375 1.754059,-0.913035 0.715429,-0.444057 1.341398,-1.08448 1.484434,-1.166218 l 0.442813,2.245715 h 3.392245 c 0.06329,-0.686275 0.01272,-9.087765 0.01272,-10.021231 0,-1.676319 0,-3.347647 0,-5.023702 0,-1.622736 -0.122603,-2.902837 -0.882887,-4.107927 -2.298044,-3.658877 -7.29558,-3.485691 -11.423936,-2.489919 -0.923753,0.222033 -3.115643,0.826316 -3.68031,1.322958"
   style="fill:#3f535d;fill-opacity:1;fill-rule:evenodd;stroke:none;stroke-width:0.24919154"
   id="path14"
   inkscape:connector-curvature="0" /><path
   d="m 125.58059,51.856258 c -0.2928,0.165463 -0.59956,0.461501 -0.93521,0.705706 -0.9559,0.68927 -2.14455,1.326697 -3.40521,1.483438 -3.73861,0.46151 -4.61777,-3.392245 -3.41641,-5.38004 1.28383,-2.121865 5.35463,-2.005249 7.76855,-2.014969 z M 113.99618,36.576831 c 0.0235,0.412663 0.53352,2.336174 0.70197,2.63694 0.62971,-0.12758 2.01471,-0.710688 3.53054,-1.00748 2.19987,-0.436088 5.81488,-0.800149 6.87321,1.570903 0.43109,0.969606 0.74358,3.65041 0.43882,3.956912 -0.18963,0.139297 -2.02568,0.153001 -2.44706,0.181164 -2.42763,0.152757 -4.43586,0.336662 -6.54128,1.445565 -2.234,1.169947 -4.09123,3.224786 -3.63072,6.850772 0.41839,3.294063 2.17943,4.732639 5.4725,5.142561 2.4199,0.303516 4.32273,-0.322204 6.26093,-1.539999 0.84377,-0.530532 1.20011,-0.991034 1.48718,-1.180675 l 0.42637,2.257177 3.41293,0.0038 V 41.851493 c 0,-1.695751 -0.13258,-2.877416 -0.90433,-4.142814 -2.22328,-3.642677 -7.35612,-3.399216 -11.39079,-2.457029 -0.94518,0.219038 -3.10144,0.820589 -3.69027,1.324955"
   style="fill:#3f535d;fill-opacity:1;fill-rule:evenodd;stroke:none;stroke-width:0.24919154"
   id="path16"
   inkscape:connector-curvature="0" /><path
   d="m 98.643736,56.938519 5.439354,7.82e-4 c 0.18016,-0.04361 0.56267,-0.920769 0.66783,-1.131085 0.20533,-0.422374 0.36681,-0.804887 0.55968,-1.225519 0.36582,-0.796165 0.70372,-1.684787 1.02194,-2.534527 1.31324,-3.517094 2.37505,-7.355139 3.27936,-11.023991 0.22202,-0.904314 1.26839,-5.26691 1.26839,-5.890887 l -4.06582,-0.0028 c -0.88787,-0.01074 -0.52754,-0.122607 -0.766,1.687773 -0.24546,1.877904 -0.63968,3.755563 -1.09222,5.525074 -0.33292,1.291809 -2.63694,9.506409 -3.09645,10.035942 l -1.16123,-4.399979 c -0.43608,-1.463998 -0.835296,-2.873422 -1.292803,-4.31001 L 97.398776,37.287463 C 97.170018,36.569051 96.951969,35.800041 96.68708,35.142174 l -4.805652,-0.01168 c 0.02043,0.424371 3.156751,10.230557 3.369064,10.922558 0.57513,1.86695 1.131084,3.581134 1.697493,5.416935 0.549963,1.808628 1.196367,3.676566 1.695751,5.468748"
   style="fill:#3f535d;fill-opacity:1;fill-rule:evenodd;stroke:none;stroke-width:0.24919154"
   id="path18"
   inkscape:connector-curvature="0" /><path
   d="m 64.082866,34.669766 0.003,18.87825 c 0,3.510114 -1.145782,7.510881 -4.66636,8.661406 0.205334,0.427357 1.72291,1.982812 2.125853,2.585362 1.193378,-0.211315 2.946441,-1.304271 3.605553,-1.930245 1.009225,-0.952907 1.63021,-1.694753 2.377038,-3.220049 1.491161,-3.039892 1.253682,-6.260939 1.253682,-9.907355 0,-7.450327 0.03887,-14.908631 -0.002,-22.358958 -0.548969,-0.09844 -3.772011,-0.0341 -4.696761,-0.03212 v 7.323736"
   style="fill:#3f535d;fill-opacity:1;fill-rule:evenodd;stroke:none;stroke-width:0.24919154"
   id="path20"
   inkscape:connector-curvature="0" /><path
   d="m 25.634357,37.925955 -1.478453,-2.149283 c -0.485675,-0.705706 -0.960882,-1.490408 -1.413415,-2.273867 -0.828312,-1.441571 -1.823084,-3.272635 -2.279853,-5.090983 -0.834044,-3.329948 1.222782,-5.394498 3.038142,-7.576917 0.27436,-0.332922 0.595818,-0.643418 0.892604,-0.955901 1.900087,-2.001255 4.502892,-4.397983 6.529568,-6.370086 C 32.982766,11.49296 34.22374,9.2659334 34.46421,6.0050164 34.593788,4.3025406 34.265604,0.6571134 33.062508,0 c 0.358089,2.5552116 0.441069,4.2908234 -0.593824,6.8587414 -1.198113,2.981579 -3.149033,4.7647936 -5.412938,6.5275796 -1.850497,1.440572 -4.878922,4.03864 -6.475243,5.542517 -1.03265,0.980316 -2.779981,2.733381 -3.503134,4.44358 -1.069779,2.529046 -0.0089,4.184672 1.136812,5.95244 0.545978,0.843015 1.100929,1.562435 1.684037,2.316733 0.679295,0.880889 1.283833,1.488421 1.828068,2.177436 0.57339,0.730129 1.282839,1.401701 1.908808,2.096697 0.390233,0.429354 1.614014,1.739606 1.999263,2.010231"
   style="fill:#3f535d;fill-opacity:1;fill-rule:evenodd;stroke:none;stroke-width:0.24919154"
   id="path22"
   inkscape:connector-curvature="0" /><path
   d="m 47.581902,59.85182 c 0.725146,1.168958 0.0088,1.664593 -0.982313,2.128844 -4.403714,2.061555 -19.295649,2.448052 -23.945812,2.515332 -4.741368,0.06998 -9.518868,-0.118858 -14.0987586,-0.922003 -0.7415938,-0.127335 -4.0045082,-0.648147 -4.1562658,-1.513588 -0.1004242,-0.544981 0.4769527,-0.954903 0.7747365,-1.139807 1.0533326,-0.655126 2.98357,-1.106661 4.3112629,-1.348125 0.3835059,-0.06829 1.311246,-0.168449 1.598315,-0.285319 -2.2183035,-0.326941 -9.2482461,0.86045 -10.78625589,3.046862 -0.96960503,1.376279 0.65512423,2.014959 1.73636629,2.368311 4.0523527,1.322713 12.4849946,1.590588 16.9335626,1.655636 6.64818,0.08967 22.647024,0.02345 28.510003,-4.005505 0.342638,-0.232497 1.015206,-0.723159 1.084232,-1.199117 0.08373,-0.59282 -0.618991,-1.149763 -0.979073,-1.301521"
   style="fill:#3f535d;fill-opacity:1;fill-rule:evenodd;stroke:none;stroke-width:0.24919154"
   id="path24"
   inkscape:connector-curvature="0" /><path
   d="m 28.396895,40.632925 c 0.706707,-0.242472 2.791693,-1.951673 3.353371,-2.52606 0.736858,-0.765017 1.991786,-2.179433 2.100683,-3.815618 0.09544,-1.485435 -0.928736,-3.419655 -1.554457,-4.367833 -1.978082,-2.999023 -3.558704,-4.715948 -0.880891,-8.041159 0.895345,-1.106906 1.865946,-1.975089 3.001014,-2.912557 1.358841,-1.123097 3.582875,-2.65737 5.175457,-3.656881 L 41.406437,14.1466 c -0.960634,0.126591 -3.504131,1.144789 -4.507625,1.518571 -1.348375,0.508105 -2.902833,1.280846 -4.080512,1.959397 -4.041637,2.337162 -8.017987,5.993308 -6.391514,11.049148 1.099931,3.420409 4.304534,5.469512 4.073783,8.032447 -0.140294,1.570149 -1.648901,3.141306 -2.103674,3.926762"
   style="fill:#3f535d;fill-opacity:1;fill-rule:evenodd;stroke:none;stroke-width:0.24919154"
   id="path26"
   inkscape:connector-curvature="0" /><path
   d="m 36.835516,57.358906 c -1.241223,-0.470223 -2.175691,-1.015204 -3.287334,-1.675312 -0.643413,-0.38451 -0.395218,-0.353362 -1.219545,-0.148772 -3.36234,0.828312 -8.815149,0.839031 -12.345695,0.73188 -0.908304,-0.02816 -3.46152,-0.106905 -3.977346,-0.962635 -0.328186,-0.538247 0.118615,-0.931469 0.29305,-1.238226 -2.313993,0.466239 -4.670598,2.388751 -1.452538,3.989059 3.621251,1.79692 11.231312,1.816351 15.193954,1.111644 1.128091,-0.200605 6.255208,-1.369563 6.795454,-1.807638"
   style="fill:#3f535d;fill-opacity:1;fill-rule:evenodd;stroke:none;stroke-width:0.24919154"
   id="path28"
   inkscape:connector-curvature="0" /><path
   d="m 37.906043,49.808154 c -0.956647,-0.240475 -1.81536,-0.838033 -2.402206,-1.352119 -0.512088,-0.43882 -0.336907,-0.329927 -1.436838,-0.145777 -3.958657,0.659863 -15.742925,1.812376 -19.116729,0.421385 -0.437082,-0.181164 -0.941197,-0.45178 -0.972345,-0.966611 -0.03589,-0.611271 0.481936,-0.941198 0.699979,-1.27511 -2.713946,0.335909 -5.3167512,2.95142 -1.684037,4.200119 4.096958,1.403698 12.933539,1.450547 17.290653,0.901573 1.434596,-0.18415 6.523585,-1.173941 7.621523,-1.78346"
   style="fill:#3f535d;fill-opacity:1;fill-rule:evenodd;stroke:none;stroke-width:0.24919154"
   id="path30"
   inkscape:connector-curvature="0" /><path
   d="m 40.631701,40.915258 c -0.515827,0.02148 -1.206088,0.181908 -1.726898,0.265633 -0.60429,0.08967 -1.179672,0.178169 -1.783214,0.25791 -3.626984,0.508106 -7.647937,0.918028 -11.278907,1.130086 -2.834555,0.166461 -13.526366,0.519813 -15.12169,-0.968353 -0.117868,-0.668831 0.648146,-1.089217 1.11837,-1.346383 1.832805,-0.983066 3.782728,-1.31499 5.58837,-1.879656 -2.494905,-0.234485 -8.7675548,1.560438 -11.035447,2.97784 -2.4530415,1.529045 1.6351947,2.138564 3.1644834,2.351621 8.9504616,1.246956 17.3198086,0.578126 26.1708436,-0.679295 1.443566,-0.204589 1.752314,-0.121853 2.735374,-0.746575 0.678549,-0.432348 1.567167,-0.886879 2.168715,-1.362828"
   style="fill:#3f535d;fill-opacity:1;fill-rule:evenodd;stroke:none;stroke-width:0.24919154"
   id="path32"
   inkscape:connector-curvature="0" /><path
   d="m 9.6988072,67.86881 c 2.4988928,1.049347 7.9409868,1.688771 10.7658208,1.917529 3.970619,0.326188 8.329478,0.249188 12.299098,-0.03118 5.13858,-0.364071 11.233057,-0.952916 15.754388,-3.248211 1.074763,-0.548975 3.012726,-1.858228 3.198623,-3.115894 -0.323202,0.147021 -0.602546,0.441071 -0.905064,0.644407 -7.97413,5.489941 -26.199251,4.966389 -35.607228,4.295561 l -5.5056378,-0.46224"
   style="fill:#3f535d;fill-opacity:1;fill-rule:evenodd;stroke:none;stroke-width:0.24919154"
   id="path34"
   inkscape:connector-curvature="0" /><path
   d="m 42.438339,38.773699 c 1.953661,-0.610264 4.175952,-0.204335 5.413188,0.895601 1.337411,1.192373 1.352861,3.453544 0.388241,5.205611 -1.290565,2.336164 -3.999774,4.420409 -6.242498,5.827836 -0.384502,0.242463 -0.756297,0.42537 -1.090213,0.67257 1.446557,-0.152756 4.876928,-1.702476 6.182193,-2.508361 1.665597,-1.028908 3.524814,-2.530789 4.291826,-4.476726 1.094948,-2.762541 -0.497386,-4.870946 -2.194132,-5.868705 -0.975336,-0.570403 -2.153264,-0.912047 -3.524814,-0.855477 -1.049097,0.04286 -2.750826,0.460258 -3.223791,1.107651"
   style="fill:#3f535d;fill-opacity:1;fill-rule:evenodd;stroke:none;stroke-width:0.24919154"
   id="path36"
   inkscape:connector-curvature="0" /></svg>