<?xml version="1.0" encoding="utf-8"?>
<!-- Generator: Adobe Illustrator 16.0.0, SVG Export Plug-In . SVG Version: 6.00 Build 0)  -->
<!DOCTYPE svg PUBLIC "-//W3C//DTD SVG 1.1//EN" "http://www.w3.org/Graphics/SVG/1.1/DTD/svg11.dtd">
<svg version="1.1" id="Capa_1" xmlns="http://www.w3.org/2000/svg" xmlns:xlink="http://www.w3.org/1999/xlink" x="0px" y="0px"
	 width="1000px" height="127px" viewBox="-58 0 1000 127" enable-background="new -58 0 1000 127" xml:space="preserve">
<path fill="#3F535D" d="M21,9h2v14h-2V9z"/>
<path fill="#3F535D" d="M866,31l34,34v54l-8,8h-52l-10-10V71l-24-24h-65l-16-16l1-2l16,16h65l25,25v46l9,9h50l7-7V66l-34-34L866,31z
	"/>
<path fill="#3F535D" d="M586,29l14,14h66l16-16h36v2h-35l-16,16h-68l-14-14L586,29z"/>
<path fill="#3F535D" d="M22,21.954c-3.314,0-6,2.688-6,6.001s2.686,5.999,6,5.999s6-2.687,6-5.999
	C28,24.642,25.314,21.954,22,21.954z M22,30.954c-1.657,0-3-1.343-3-3c0-1.657,1.343-3,3-3s3,1.344,3,3
	C25,29.611,23.657,30.954,22,30.954z"/>
<path fill="#3F535D" d="M22,0c-2.761,0-5,2.239-5,5s2.239,5,5,5s5-2.239,5-5S24.762,0,22,0z M22,7c-1.104,0-2-0.895-2-2s0.896-2,2-2
	s2,0.896,2,2S23.104,7,22,7z"/>
<path fill="#3F535D" d="M163,22.044V9.9c2.282-0.463,4-2.481,4-4.9c0-2.761-2.238-5-5-5s-5,2.239-5,5c0,2.418,1.718,4.436,4,4.899
	v12.144c-2.837,0.478-5,2.939-5,5.911c0,3.313,2.686,5.999,6,5.999s6-2.687,6-5.999C168,24.983,165.837,22.521,163,22.044z M160,5
	c0-1.104,0.896-2,2-2s2,0.896,2,2s-0.896,2-2,2S160,6.105,160,5z M162,30.954c-1.657,0-3-1.343-3-3c0-1.657,1.343-3,3-3s3,1.344,3,3
	C165,29.611,163.657,30.954,162,30.954z"/>
<g>
	<path fill="#3F535D" d="M301,9h2v14h-2V9z"/>
	<path fill="#3F535D" d="M302,21.954c-3.314,0-6,2.688-6,6.001s2.686,5.999,6,5.999s6-2.687,6-5.999
		C308,24.642,305.314,21.954,302,21.954z M302,30.954c-1.657,0-3-1.343-3-3c0-1.657,1.343-3,3-3s3,1.344,3,3
		C305,29.611,303.657,30.954,302,30.954z"/>
	<path fill="#3F535D" d="M302,0c-2.761,0-5,2.239-5,5s2.239,5,5,5s5-2.239,5-5S304.762,0,302,0z M302,7c-1.104,0-2-0.896-2-2
		s0.896-2,2-2s2,0.896,2,2S303.104,7,302,7z"/>
</g>
<g>
	<path fill="#3F535D" d="M441,9h2v14h-2V9z"/>
	<path fill="#3F535D" d="M442,21.954c-3.314,0-6,2.688-6,6.001s2.686,5.999,6,5.999s6-2.687,6-5.999
		C448,24.642,445.314,21.954,442,21.954z M442,30.954c-1.657,0-3-1.343-3-3c0-1.657,1.343-3,3-3s3,1.344,3,3
		C445,29.611,443.657,30.954,442,30.954z"/>
	<path fill="#3F535D" d="M442,0c-2.761,0-5,2.239-5,5s2.239,5,5,5c2.762,0,5-2.239,5-5S444.762,0,442,0z M442,7
		c-1.104,0-2-0.896-2-2s0.896-2,2-2s2,0.896,2,2S443.104,7,442,7z"/>
</g>
<g>
	<path fill="#3F535D" d="M581,9h2v14h-2V9z"/>
	<path fill="#3F535D" d="M582,21.954c-3.314,0-6,2.688-6,6.001s2.686,5.999,6,5.999s6-2.687,6-5.999
		C588,24.642,585.314,21.954,582,21.954z M582,30.954c-1.657,0-3-1.343-3-3c0-1.657,1.343-3,3-3s3,1.344,3,3
		C585,29.611,583.657,30.954,582,30.954z"/>
	<path fill="#3F535D" d="M582,0c-2.761,0-5,2.239-5,5s2.239,5,5,5c2.762,0,5-2.239,5-5S584.762,0,582,0z M582,7
		c-1.104,0-2-0.896-2-2s0.896-2,2-2s2,0.896,2,2S583.104,7,582,7z"/>
</g>
<g>
	<path fill="#3F535D" d="M721,9h2v14h-2V9z"/>
	<path fill="#3F535D" d="M722,21.954c-3.314,0-6,2.688-6,6.001s2.686,5.999,6,5.999s6-2.687,6-5.999
		C728,24.642,725.314,21.954,722,21.954z M722,30.954c-1.657,0-3-1.343-3-3c0-1.657,1.343-3,3-3s3,1.344,3,3
		C725,29.611,723.657,30.954,722,30.954z"/>
	<path fill="#3F535D" d="M722,0c-2.761,0-5,2.239-5,5s2.239,5,5,5c2.762,0,5-2.239,5-5S724.762,0,722,0z M722,7
		c-1.104,0-2-0.896-2-2s0.896-2,2-2s2,0.896,2,2S723.104,7,722,7z"/>
</g>
<g>
	<path fill="#3F535D" d="M861,9h2v14h-2V9z"/>
	<path fill="#3F535D" d="M862,21.954c-3.314,0-6,2.688-6,6.001s2.686,5.999,6,5.999s6-2.687,6-5.999
		C868,24.642,865.314,21.954,862,21.954z M862,30.954c-1.657,0-3-1.343-3-3c0-1.657,1.343-3,3-3s3,1.344,3,3
		C865,29.611,863.657,30.954,862,30.954z"/>
	<path fill="#3F535D" d="M862,0c-2.761,0-5,2.239-5,5s2.239,5,5,5c2.762,0,5-2.239,5-5S864.762,0,862,0z M862,7
		c-1.104,0-2-0.896-2-2s0.896-2,2-2s2,0.896,2,2S863.104,7,862,7z"/>
</g>
<g>
	<rect x="306" y="27" fill="#3F535D" width="132" height="2"/>
	<rect x="166" y="27" fill="#3F535D" width="132" height="2"/>
	<rect x="26" y="27" fill="#3F535D" width="132" height="2"/>
	<rect x="446" y="27" fill="#3F535D" width="132" height="2"/>
</g>
</svg>
