<?xml version="1.0" encoding="UTF-8" standalone="no"?>
<!-- Generator: Adobe Illustrator 16.0.0, SVG Export Plug-In . SVG Version: 6.00 Build 0)  -->

<svg
   xmlns:dc="http://purl.org/dc/elements/1.1/"
   xmlns:cc="http://creativecommons.org/ns#"
   xmlns:rdf="http://www.w3.org/1999/02/22-rdf-syntax-ns#"
   xmlns:svg="http://www.w3.org/2000/svg"
   xmlns="http://www.w3.org/2000/svg"
   xmlns:sodipodi="http://sodipodi.sourceforge.net/DTD/sodipodi-0.dtd"
   xmlns:inkscape="http://www.inkscape.org/namespaces/inkscape"
   version="1.1"
   id="Capa_1"
   x="0px"
   y="0px"
   width="138"
   height="50.254463"
   viewBox="0 0 138 50.254463"
   enable-background="new 0 0 139 22"
   xml:space="preserve"
   sodipodi:docname="unity.svg"
   inkscape:version="0.92.3 (2405546, 2018-03-11)"><metadata
   id="metadata33"><rdf:RDF><cc:Work
       rdf:about=""><dc:format>image/svg+xml</dc:format><dc:type
         rdf:resource="http://purl.org/dc/dcmitype/StillImage" /><dc:title></dc:title></cc:Work></rdf:RDF></metadata><defs
   id="defs31"><clipPath
     id="a"
     clipPathUnits="userSpaceOnUse"><path
       inkscape:connector-curvature="0"
       d="M 0,0 H 2467.7 V 3078.5 H 0 Z"
       id="path2" /></clipPath></defs><sodipodi:namedview
   pagecolor="#ffffff"
   bordercolor="#666666"
   borderopacity="1"
   objecttolerance="10"
   gridtolerance="10"
   guidetolerance="10"
   inkscape:pageopacity="0"
   inkscape:pageshadow="2"
   inkscape:window-width="1920"
   inkscape:window-height="1000"
   id="namedview29"
   showgrid="false"
   fit-margin-top="0"
   fit-margin-left="0"
   fit-margin-right="0"
   fit-margin-bottom="0"
   inkscape:zoom="2.8201439"
   inkscape:cx="68.762729"
   inkscape:cy="28.428235"
   inkscape:window-x="-11"
   inkscape:window-y="-11"
   inkscape:window-maximized="1"
   inkscape:current-layer="Capa_1" />

<g
   transform="matrix(0.57499026,0,0,-0.57499026,-33.567415,201.75955)"
   id="g23"
   style="fill:#3f535d;fill-opacity:1"><g
     transform="matrix(0.19707,0,0,0.19707,-56.668,-255.78)"
     id="g21"
     style="fill:#3f535d;fill-opacity:1"><g
       style="fill:#3f535d;fill-opacity:1"
       clip-path="url(#a)"
       id="g19"><path
         inkscape:connector-curvature="0"
         d="m 1263.9,2944.2 h -42.52 v -98.34 c 0,-25.32 -10.39,-45.44 -40.9,-45.44 -30.18,-0.33 -38.94,20.44 -38.94,46.73 v 97.05 h -42.52 v -107.76 c 0,-31.15 11.03,-75.62 69.46,-75.95 32.13,-0.32 48.03,15.26 55.5,29.21 v -23.69 h 39.92 v 178.19"
         id="path7"
         style="fill:#3f535d;fill-opacity:1" /><path
         inkscape:connector-curvature="0"
         d="m 1280.8,2766 h 42.52 v 98.35 c 0,24.99 10.38,45.11 40.57,45.44 29.86,0 38.62,-20.45 38.62,-47.06 V 2766 h 42.52 v 107.44 c 0,31.48 -11.03,75.95 -69.13,76.27 -31.81,0.32 -47.72,-15.25 -55.5,-29.21 0.32,8.44 0.32,15.9 0.32,23.69 H 1280.8 V 2766"
         id="path9"
         style="fill:#3f535d;fill-opacity:1" /><path
         inkscape:connector-curvature="0"
         d="m 1461.3,2766 h 42.52 v 178.19 h -42.52 z m 0,202.21 h 42.52 v 37.98 h -42.52 v -37.98"
         id="path11"
         style="fill:#3f535d;fill-opacity:1" /><path
         inkscape:connector-curvature="0"
         d="m 1548.3,2766 h 42.52 v 145.41 h 30.51 l -12.62,32.78 h -17.89 v 62 h -42.52 v -62 h -29.54 v -32.78 h 29.54 V 2766"
         id="path13"
         style="fill:#3f535d;fill-opacity:1" /><path
         inkscape:connector-curvature="0"
         d="m 1662.4,2703.7 h 45.44 l 93.81,240.51 h -45.44 l -42.85,-118.47 -43.49,118.47 h -45.44 l 67.18,-171.37 -29.21,-69.14"
         id="path15"
         style="fill:#3f535d;fill-opacity:1" /><path
         inkscape:connector-curvature="0"
         d="m 865.9,2856.7 77.609,134.02 37.504,-134.02 -37.504,-133.99 z m -37.829,-21.76 77.622,-134 -135.18,34.63 -97.668,99.37 h 155.23 z m 77.606,177.56 -77.606,-134.02 h -155.23 l 97.668,99.37 135.17,34.65 z m 110.8,-110.19 -47.353,176.15 -176.73,-47.21 -26.161,-45.99 -53.085,0.38 -129.36,-128.95 129.36,-128.92 h 0.003 l 53.063,0.39 26.199,-45.99 176.71,-47.21 47.353,176.13 -26.892,45.61 26.892,45.61"
         id="path17"
         style="fill:#3f535d;fill-opacity:1" /></g></g></g></svg>