<?xml version="1.0" encoding="utf-8"?>
<!-- Generator: Adobe Illustrator 16.0.0, SVG Export Plug-In . SVG Version: 6.00 Build 0)  -->
<!DOCTYPE svg PUBLIC "-//W3C//DTD SVG 1.1//EN" "http://www.w3.org/Graphics/SVG/1.1/DTD/svg11.dtd">
<svg version="1.1" id="Capa_1" xmlns="http://www.w3.org/2000/svg" xmlns:xlink="http://www.w3.org/1999/xlink" x="0px" y="0px"
	 width="423px" height="178px" viewBox="0 0 423 178" enable-background="new 0 0 423 178" xml:space="preserve">
<path fill-rule="evenodd" clip-rule="evenodd" fill="#FFFFFF" d="M334,0c-35.617,0-66.342,20.925-80.566,51.148
	c-9.808,12.086-24.93,19.838-41.901,19.838c-17.061,0-32.252-7.832-42.055-20.027C155.214,20.838,124.542,0,89,0
	C39.847,0,0,39.848,0,89c0,49.152,39.847,89,89,89c35.571,0,66.263-20.871,80.512-51.033c9.804-12.17,24.98-19.983,42.021-19.983
	c16.952,0,32.058,7.732,41.867,19.795C267.609,157.041,298.354,178,334,178c49.154,0,89-39.848,89-89C423,39.848,383.154,0,334,0z"
	/>
</svg>
