<?xml version="1.0" encoding="UTF-8" standalone="no"?>
<svg
   xmlns:dc="http://purl.org/dc/elements/1.1/"
   xmlns:cc="http://creativecommons.org/ns#"
   xmlns:rdf="http://www.w3.org/1999/02/22-rdf-syntax-ns#"
   xmlns:svg="http://www.w3.org/2000/svg"
   xmlns="http://www.w3.org/2000/svg"
   xmlns:sodipodi="http://sodipodi.sourceforge.net/DTD/sodipodi-0.dtd"
   xmlns:inkscape="http://www.inkscape.org/namespaces/inkscape"
   version="1.1"
   id="Capa_1"
   x="0px"
   y="0px"
   width="178px"
   height="178px"
   viewBox="0 0 178 178"
   enable-background="new 0 0 178 178"
   xml:space="preserve"
   sodipodi:docname="laocoon-logo.svg"
   inkscape:version="0.92.3 (2405546, 2018-03-11)"><metadata
   id="metadata93"><rdf:RDF><cc:Work
       rdf:about=""><dc:format>image/svg+xml</dc:format><dc:type
         rdf:resource="http://purl.org/dc/dcmitype/StillImage" /><dc:title></dc:title></cc:Work></rdf:RDF></metadata><defs
   id="defs91" /><sodipodi:namedview
   pagecolor="#ffffff"
   bordercolor="#666666"
   borderopacity="1"
   objecttolerance="10"
   gridtolerance="10"
   guidetolerance="10"
   inkscape:pageopacity="0"
   inkscape:pageshadow="2"
   inkscape:window-width="1920"
   inkscape:window-height="1000"
   id="namedview89"
   showgrid="false"
   inkscape:pagecheckerboard="true"
   inkscape:zoom="2.6516854"
   inkscape:cx="83.759025"
   inkscape:cy="114.46624"
   inkscape:window-x="-11"
   inkscape:window-y="-11"
   inkscape:window-maximized="1"
   inkscape:current-layer="Capa_1" />

<flowRoot
   xml:space="preserve"
   id="flowRoot900"
   style="fill:#ffffff;fill-opacity:1;stroke:none;font-family:sans-serif;font-style:normal;font-weight:normal;font-size:40px;line-height:1.25;letter-spacing:0px;word-spacing:0px;"><flowRegion
     id="flowRegion902"
     style="fill:#ffffff;"><rect
       id="rect904"
       width="147.83051"
       height="91.262711"
       x="27.90678"
       y="41.483051"
       style="fill:#ffffff;" /></flowRegion><flowPara
     id="flowPara906" /></flowRoot>
<style
   id="style942"
   type="text/css">
	.st0{fill:#FFFFFF;}
	.st1{fill:#899A0F;}
	.st2{fill:#6C6965;}
</style><g
   transform="matrix(0.33304787,0,0,0.33304787,49.001901,79.733483)"
   id="g18"><path
     inkscape:connector-curvature="0"
     class="st0"
     d="m 9.1,0.2 c 0,13.1 0,26.3 0,39.4 0,6.8 1.6,8.4 8.6,8.4 5.3,0 10.7,-0.1 16,0 2.4,0 3.5,-0.3 3.5,-3.2 C 37.4,33.6 40.3,31 51.7,31 c 1.7,0 3.3,0.1 5,0 1.5,-0.1 3.8,0.7 3.8,-1.8 0,-2.2 -1.3,-3.8 -3.7,-3.9 -4,-0.1 -8,-0.2 -12,0 -2.7,0.1 -3.8,-0.6 -3.8,-3.6 0,-3 1.2,-3.6 3.8,-3.5 4.5,0.2 9,-0.1 13.5,0.1 6.5,0.2 10.4,3.7 10.6,10.2 0.2,7.5 0,15 0.1,22.5 0,2.7 -0.9,4.4 -4,4.4 -5.8,-0.1 -11.7,0 -17.5,-0.1 C 44,55 41.1,53.5 38,49.5 c 1,5.5 -1.5,5.9 -4.8,5.7 -5,-0.2 -10,-0.4 -15,0 C 10.2,56 4,53.6 0.1,46.2 0.1,32.3 0.3,18.4 0,4.6 c -0.1,-3.9 1.1,-5 4.7,-4.4 1.4,0.2 2.9,0 4.4,0 z m 45.4,48 C 57,47.7 61,50 61,44 c 0,-4.7 -1.1,-6.8 -6,-6 -1.6,0.3 -3.3,0 -5,0.1 -3.3,0.1 -4.8,2 -4.7,5.2 0,3.2 1.7,4.9 4.9,5 1.3,-0.1 2.6,-0.1 4.3,-0.1 z"
     id="path4-7"
     style="fill:#ffffff" /><path
     inkscape:connector-curvature="0"
     class="st0"
     d="m 240.1,55.2 c -8.2,0 -8.2,0 -8.2,-8.1 0,-5.5 0,-11 0,-16.5 0,-3.7 -1.7,-5.3 -5.6,-5.4 -10.9,-0.3 -10.9,-0.4 -10.9,10.5 0,5.3 -0.2,10.7 0.1,16 0.2,3.5 -1.7,3.6 -4.3,3.6 -2.5,0 -4,-0.2 -4,-3.4 0.2,-9.2 0.1,-18.3 0.1,-27.5 0,-4.4 2.2,-6.3 6.6,-6.2 4.3,0.2 8.7,0.3 13,0 6.5,-0.5 10.8,2.2 13.3,8.1 -0.1,9.5 -0.1,19.2 -0.1,28.9 z"
     id="path6-3"
     style="fill:#ffffff" /><path
     inkscape:connector-curvature="0"
     class="st0"
     d="M 95.1,55.6 C 89.8,55.5 84.4,55.5 79.1,55.4 73.3,53.2 71,48.9 71.2,42.9 c 0.2,-4.7 -0.1,-9.3 0.1,-14 0.2,-6.8 4.1,-11 10.8,-11.3 3.8,-0.2 7.7,-0.2 11.5,0 6.1,0.4 10.1,4.5 10.3,10.7 0.2,5.5 0.2,11 0,16.5 -0.2,5.8 -3.4,9.2 -8.8,10.8 z M 95.8,37 c 0,0 0,0 0,0 0,-2.3 0.1,-4.6 0,-7 -0.2,-5.4 -4.1,-5.6 -8.1,-5.6 -4,0 -8,0 -8.2,5.5 -0.1,4.5 -0.1,9 0,13.4 0,2.5 1,4.5 3.6,5.3 8.4,2.6 12.7,-0.6 12.7,-9.2 0,-0.8 0,-1.6 0,-2.4 z"
     id="path8-3"
     style="fill:#ffffff" /><path
     inkscape:connector-curvature="0"
     class="st0"
     d="m 159.1,55.6 c -5.3,-0.1 -10.7,-0.1 -16,-0.2 -5.8,-2.2 -8.1,-6.5 -7.9,-12.5 0.2,-4.7 -0.1,-9.3 0.1,-14 0.2,-6.8 4.1,-11 10.8,-11.3 3.8,-0.2 7.7,-0.2 11.5,0 6.1,0.4 10.1,4.5 10.3,10.7 0.2,5.5 0.2,11 0,16.5 -0.2,5.8 -3.4,9.2 -8.8,10.8 z m 0.7,-19 c 0.2,-10.8 0.9,-12.7 -11,-12.2 -3.4,0.1 -5.3,1.9 -5.4,5.3 -0.1,4.6 -0.1,9.3 0,13.9 0.1,2.5 1.3,4.4 3.9,5.1 8.8,2.2 12.4,-0.6 12.4,-9.6 0.1,-0.8 0.1,-1.6 0.1,-2.5 z"
     id="path10-6"
     style="fill:#ffffff" /><path
     inkscape:connector-curvature="0"
     class="st0"
     d="m 195.1,55.6 c -5.3,-0.1 -10.7,-0.1 -16,-0.2 -5.8,-2.2 -8.1,-6.5 -7.9,-12.5 0.2,-4.7 -0.1,-9.3 0.1,-14 0.2,-6.8 4.1,-11 10.8,-11.3 3.8,-0.2 7.7,-0.2 11.5,0 6.1,0.4 10.1,4.5 10.3,10.7 0.2,5.5 0.2,11 0,16.5 -0.2,5.8 -3.4,9.2 -8.8,10.8 z m 0.7,-18.7 c 0,0 0,0 0,0 0,-2.3 0.1,-4.6 0,-7 -0.3,-5.4 -4.1,-5.5 -8.2,-5.5 -4,0 -8,0.1 -8.1,5.5 -0.1,4.5 -0.1,9 0,13.4 0,2.5 1,4.5 3.7,5.3 8.5,2.5 12.7,-0.6 12.7,-9.3 -0.1,-0.7 -0.1,-1.5 -0.1,-2.4 z"
     id="path12-7"
     style="fill:#ffffff" /><path
     inkscape:connector-curvature="0"
     class="st0"
     d="m 107,36.7 c 0,-17 1.5,-18.5 18.4,-18.5 1.5,0 3,0.1 4.5,0 2.4,-0.2 3.2,0.9 3.1,3.2 -0.1,2.1 0.1,4 -3,3.9 -3.2,-0.2 -6.3,0 -9.5,0 -3.4,0 -5.4,1.5 -5.4,5 0,4.3 0,8.6 0,13 0,3.6 1.9,5.1 5.4,5 2.8,0 5.7,0.2 8.5,0 3,-0.2 4.1,0.8 4.1,3.9 0,3.4 -1.9,3.2 -4.2,3.2 -3.3,0 -6.7,0 -10,0 -8,-0.1 -11.8,-3.9 -11.9,-12 -0.1,-2.4 0,-4.5 0,-6.7 z"
     id="path14-9"
     style="fill:#ffffff" /><path
     inkscape:connector-curvature="0"
     class="st0"
     d="m 188.3,44.2 c -4.5,0 -3.5,-2.9 -2.8,-4.5 0.7,-1.6 1.8,-2.3 -0.5,-3.7 -2.5,-1.5 -2.4,-4.2 -0.5,-6.3 1.8,-2 4.2,-1.9 6.1,-0.1 2,2.1 2,4.8 -0.4,6.3 -2.1,1.4 -1.5,1.9 -0.6,3.7 0.8,1.5 1.8,4.4 -1.3,4.6 z"
     id="path16-1"
     style="fill:#ffffff" /></g></svg>