
<svg xmlns="http://www.w3.org/2000/svg" viewBox="0 0 178 178">	<path fill="#FFFFFF " d="M51.31,95.02h-1.26c-1.09,0-2.17-0.75-2.17-2.93V70H44.5v22.35c0,4.03,2.06,5.77,5.16,5.78h3.12c0,0-0.51-0.89-0.76-1.44C51.81,96.25,51.31,95.02,51.31,95.02z M101.13,78.39c-6.14,0-10.55,4.66-10.55,10.1c0,5.52,4.19,10.07,10.55,10.07c6.35,0,10.54-4.55,10.54-10.07C111.67,83.06,107.26,78.39,101.13,78.39z M101.12,95.46c-3.74,0-6.95-3.25-6.95-6.96c0-4,3.22-7,6.95-7c3.74,0,6.95,3,6.95,7C108.07,92.21,104.86,95.46,101.12,95.46z M122.95,78.39c-2.75,0-5.13,0.98-6.95,2.51v-2.06h-3.59v9.47c0,0.06-0.02,0.12-0.02,0.18c0,0.07,0.02,0.13,0.02,0.2v17.54H116V96.18c1.79,1.47,4.14,2.39,6.95,2.39c6.36,0,10.55-4.55,10.55-10.07C133.5,83.06,129.08,78.39,122.95,78.39z M122.95,95.46c-3.72,0-6.9-3.21-6.95-6.89v-0.15c0.04-3.96,3.24-6.92,6.95-6.92c3.74,0,6.95,3,6.95,7C129.9,92.21,126.69,95.46,122.95,95.46zM70.78,70.1c-10.58,0-19.15,8.49-19.15,18.96C51.64,99.52,60.22,108,70.78,108c10.58,0,19.15-8.49,19.15-18.96
C89.93,78.58,81.37,70.1,70.78,70.1z M54.98,89.15c0-0.03,0-0.07,0-0.1c0-0.09,0.01-0.17,0.01-0.26C54.98,88.91,54.98,89.03,54.98,89.15z M71.9,105.81c-8.54,0-15.57-6.26-16.74-14.39c0.29,1.87,0.91,3.72,1.92,5.46c4.37,7.49,14.04,10.05,21.61,5.73c7.56-4.33,10.16-13.9,5.79-21.39c-4.37-7.49-14.05-10.05-21.61-5.73c-4.21,2.41-6.87,6.44-7.66,10.83C56.54,78.37,63.5,72.3,71.9,72.3c9.34,0,16.93,7.51,16.93,16.75S81.24,105.81,71.9,105.81zM63.29,87.95c0-4.09,3.35-7.42,7.5-7.42s7.49,3.32,7.49,7.42c0,4.09-3.35,7.42-7.49,7.42C66.65,95.37,63.29,92.06,63.29,87.95zM66.11,97.16c-0.01-0.01-0.03-0.01-0.04-0.02c-0.03-0.02-0.06-0.04-0.1-0.06C66.02,97.1,66.06,97.13,66.11,97.16z M70.78,98.39c5.21,0,9.43-4.18,9.43-9.34c0-5.16-4.22-9.33-9.43-9.33c-5.21-0.01-9.43,4.18-9.43,9.33c0,2.88,1.32,5.46,3.4,7.17c-4-3.17-5.18-8.83-2.54-13.35c2.91-4.99,9.36-6.7,14.4-3.82c5.04,2.88,6.77,9.27,3.86,14.26c-2.71,4.64-8.47,6.44-13.32,4.35C68.27,98.13,69.5,98.39,70.78,98.39z M64.54,99.75c5.98,3.41,13.61,1.39,17.06-4.52c3.45-5.92,1.41-13.47-4.57-16.88c-5.97-3.41-13.61-1.38-17.06,4.52c-1.94,3.32-2.14,7.17-0.89,10.5c-2.39-6.08-0.03-13.15,5.86-16.52c6.5-3.71,14.83-1.51,18.58,4.92c3.76,6.43,1.53,14.67-4.97,18.39c-6.25,3.57-14.19,1.66-18.12-4.23C61.46,97.45,62.83,98.78,64.54,99.75z M60.06,95.37c-0.03-0.05-0.06-0.09-0.09-0.13c-0.07-0.12-0.12-0.24-0.18-0.35C59.88,95.04,59.96,95.21,60.06,95.37z"/></svg>
