<?xml version="1.0" encoding="utf-8"?>
<!-- Generator: Adobe Illustrator 16.0.0, SVG Export Plug-In . SVG Version: 6.00 Build 0)  -->
<!DOCTYPE svg PUBLIC "-//W3C//DTD SVG 1.1//EN" "http://www.w3.org/Graphics/SVG/1.1/DTD/svg11.dtd">
<svg version="1.1" id="Capa_1" xmlns="http://www.w3.org/2000/svg" xmlns:xlink="http://www.w3.org/1999/xlink" x="0px" y="0px"
	 width="178px" height="178px" viewBox="0 0 178 178" enable-background="new 0 0 178 178" xml:space="preserve">
<g>
	<g>
		<path fill="#FFFFFF" d="M109.275,81.787c1.75,0,3.168,1.418,3.168,3.168s-1.418,3.168-3.168,3.168s-3.168-1.418-3.168-3.168
			C106.107,83.206,107.525,81.787,109.275,81.787 M109.275,79.483c-3.019,0-5.471,2.455-5.471,5.472s2.452,5.471,5.471,5.471
			c3.018,0,5.473-2.454,5.473-5.471S112.293,79.483,109.275,79.483L109.275,79.483z"/>
		<path fill="#FFFFFF" d="M88.998,46.304c0.069,0,0.139,0.002,0.209,0.007c1.747,0.114,3.068,1.622,2.956,3.368
			c-0.108,1.676-1.502,2.962-3.158,2.962c-0.069,0-0.14-0.002-0.21-0.007c-1.746-0.114-3.069-1.622-2.956-3.367
			C85.948,47.59,87.341,46.304,88.998,46.304 M88.998,44c-2.874,0-5.271,2.248-5.458,5.117c-0.095,1.458,0.384,2.867,1.348,3.965
			c0.965,1.099,2.299,1.756,3.758,1.851c0.118,0.007,0.239,0.012,0.359,0.012c2.873,0,5.269-2.248,5.457-5.116
			c0.097-1.458-0.383-2.867-1.349-3.965c-0.965-1.098-2.299-1.756-3.755-1.851C89.237,44.004,89.117,44,88.998,44L88.998,44z"/>
		<path fill="#FFFFFF" d="M68.724,81.787c1.75,0,3.168,1.418,3.168,3.168s-1.418,3.168-3.168,3.168
			c-1.749,0-3.168-1.418-3.168-3.168C65.556,83.206,66.975,81.787,68.724,81.787 M68.724,79.483c-3.017,0-5.472,2.455-5.472,5.472
			s2.455,5.471,5.472,5.471c3.018,0,5.473-2.454,5.473-5.471S71.742,79.483,68.724,79.483L68.724,79.483z"/>
		<path fill="#FFFFFF" d="M89.52,69.749c1.748,0,3.168,1.418,3.168,3.168s-1.42,3.168-3.168,3.168c-1.75,0-3.168-1.419-3.168-3.168
			C86.35,71.167,87.769,69.749,89.52,69.749 M89.52,67.444c-3.018,0-5.473,2.455-5.473,5.472c0,3.018,2.455,5.472,5.473,5.472
			c3.019,0,5.472-2.455,5.472-5.472C94.99,69.899,92.537,67.444,89.52,67.444L89.52,67.444z"/>
		<rect x="77.669" y="83.573" fill="#FFFFFF" width="5.003" height="2.765"/>
		<rect x="86.499" y="83.573" fill="#FFFFFF" width="5.003" height="2.765"/>
		<path fill="#FFFFFF" d="M100.33,86.338h-5.002v-2.765h5.002V86.338z"/>
		
			<rect x="77.734" y="75.877" transform="matrix(-0.5037 -0.8639 0.8639 -0.5037 50.7688 187.0432)" fill="#FFFFFF" width="2.765" height="6.12"/>
		
			<rect x="77.485" y="64.691" transform="matrix(-0.8683 -0.496 0.496 -0.8683 114.0061 164.7)" fill="#FFFFFF" width="2.765" height="5.048"/>
		
			<rect x="81.915" y="56.918" transform="matrix(-0.8683 -0.496 0.496 -0.8683 126.1391 152.3754)" fill="#FFFFFF" width="2.765" height="5.049"/>
		<path fill="#FFFFFF" d="M74.348,77.872l-2.4-1.372l2.505-4.383l2.4,1.372L74.348,77.872z"/>
	</g>
	<g>
		<path fill="#FFFFFF" d="M49.003,126.471h-1.618v2.744c0,0.704,0.011,1.268,0.82,1.268c0.271,0,0.563-0.06,0.81-0.188l0.035,0.833
			c-0.316,0.141-0.728,0.199-1.066,0.199c-1.303,0-1.514-0.704-1.514-1.842v-3.014h-1.196v-0.775h1.196v-1.56h0.915v1.56h1.618
			V126.471L49.003,126.471z"/>
		<path fill="#FFFFFF" d="M50.129,126.999c0-0.505-0.047-0.938-0.047-1.304h0.868c0,0.294,0.023,0.6,0.023,0.904h0.023
			c0.246-0.539,0.927-1.045,1.829-1.045c0.117,0,0.247,0.012,0.376,0.06l-0.059,0.927c-0.152-0.047-0.329-0.07-0.493-0.07
			c-1.113,0-1.606,0.785-1.606,2.04v2.675h-0.915L50.129,126.999L50.129,126.999z"/>
		<path fill="#FFFFFF" d="M54.188,126.398c0.563-0.573,1.384-0.844,2.182-0.844c1.618,0,2.299,0.774,2.299,2.322v2.357
			c0,0.315,0.035,0.668,0.082,0.949h-0.88c-0.059-0.246-0.059-0.586-0.059-0.82h-0.023c-0.363,0.563-0.974,0.962-1.807,0.962
			c-1.114,0-2.04-0.563-2.04-1.632c0-1.816,2.11-1.922,3.46-1.922h0.352v-0.164c0-0.799-0.505-1.209-1.36-1.209
			c-0.587,0-1.196,0.199-1.63,0.6L54.188,126.398z M56.838,128.546c-1.161,0-1.912,0.315-1.912,1.058
			c0,0.69,0.517,0.948,1.209,0.948c1.056,0,1.595-0.762,1.618-1.653v-0.353H56.838z"/>
		<path fill="#FFFFFF" d="M64.908,130.212h-0.023c-0.34,0.621-1.126,1.114-2.11,1.114c-1.537,0-2.745-1.243-2.745-2.887
			c0-1.664,1.161-2.885,2.885-2.885c0.798,0,1.467,0.353,1.971,0.938h0.023v-4.177h0.915v8.867h-0.915L64.908,130.212
			L64.908,130.212z M62.961,126.398c-1.186,0-1.947,0.894-1.947,2.041c0,1.149,0.762,2.041,1.947,2.041s1.946-0.892,1.946-2.041
			C64.908,127.292,64.146,126.398,62.961,126.398z"/>
		<path fill="#FFFFFF" d="M68.051,122.881c0.376,0,0.669,0.307,0.669,0.669c0,0.388-0.281,0.669-0.669,0.669
			c-0.387,0-0.668-0.281-0.668-0.669C67.383,123.188,67.676,122.881,68.051,122.881z M67.594,125.695h0.915v5.49h-0.915V125.695z"/>
		<path fill="#FFFFFF" d="M70.328,126.999c0-0.505-0.047-0.938-0.047-1.304h0.868c0,0.294,0.022,0.6,0.022,0.904h0.024
			c0.245-0.539,0.926-1.045,1.829-1.045c1.442,0,2.088,0.916,2.088,2.24v3.391h-0.915v-3.297c0-0.914-0.398-1.49-1.255-1.49
			c-1.185,0-1.701,0.856-1.701,2.111v2.676h-0.914L70.328,126.999L70.328,126.999z"/>
		<path fill="#FFFFFF" d="M82.326,130.939c0,1.98-1.066,3.061-2.99,3.061c-1.067,0-1.924-0.281-2.698-1.044l0.656-0.751
			c0.575,0.622,1.197,0.949,2.042,0.949c1.642,0,2.075-1.055,2.075-2.215v-0.705h-0.023c-0.434,0.705-1.208,1.021-1.935,1.021
			c-1.725,0-2.921-1.195-2.921-2.814c0-1.795,1.173-2.885,2.921-2.885c0.739,0,1.571,0.352,1.935,1.078h0.023v-0.938h0.915V130.939z
			 M79.453,130.411c1.255,0,1.958-0.938,1.958-1.993c0-1.186-0.797-2.02-1.958-2.02c-1.149,0-1.936,0.894-1.936,2.041
			C77.517,129.555,78.385,130.411,79.453,130.411z"/>
		<path fill="#FFFFFF" d="M87.393,129.743c0.363,0.444,0.762,0.737,1.407,0.737c0.574,0,1.208-0.246,1.208-0.845
			c0-0.587-0.585-0.737-1.171-0.866c-1.045-0.235-1.936-0.457-1.936-1.597c0-1.067,1.031-1.618,2.051-1.618
			c0.774,0,1.489,0.293,1.866,0.997l-0.764,0.505c-0.234-0.388-0.622-0.658-1.16-0.658c-0.506,0-1.08,0.248-1.08,0.764
			c0,0.458,0.657,0.656,1.384,0.798c0.973,0.188,1.793,0.54,1.793,1.644c0,1.242-1.102,1.724-2.192,1.724
			c-0.927,0-1.595-0.246-2.135-1.021L87.393,129.743z"/>
		<path fill="#FFFFFF" d="M94.887,125.557c1.689,0,2.934,1.172,2.934,2.885s-1.243,2.886-2.934,2.886
			c-1.688,0-2.932-1.173-2.932-2.886S93.199,125.557,94.887,125.557z M94.887,130.48c1.186,0,1.947-0.892,1.947-2.041
			c0-1.147-0.762-2.041-1.947-2.041c-1.184,0-1.945,0.894-1.945,2.041C92.941,129.59,93.703,130.48,94.887,130.48z"/>
		<path fill="#FFFFFF" d="M99.322,122.318h0.914v8.867h-0.914V122.318z"/>
		<path fill="#FFFFFF" d="M106.84,129.883c0,0.506,0.047,0.938,0.047,1.303h-0.867c0-0.293-0.024-0.599-0.024-0.903h-0.021
			c-0.248,0.54-0.929,1.045-1.83,1.045c-1.443,0-2.088-0.915-2.088-2.24v-3.39h0.914v3.296c0,0.914,0.397,1.489,1.256,1.489
			c1.184,0,1.7-0.855,1.7-2.11v-2.675h0.914L106.84,129.883L106.84,129.883z"/>
		<path fill="#FFFFFF" d="M111.578,126.471h-1.619v2.744c0,0.704,0.012,1.268,0.822,1.268c0.27,0,0.563-0.06,0.809-0.188
			l0.035,0.833c-0.316,0.141-0.727,0.199-1.066,0.199c-1.303,0-1.514-0.704-1.514-1.842v-3.014h-1.195v-0.775h1.195v-1.56h0.914
			v1.56h1.619V126.471z"/>
		<path fill="#FFFFFF" d="M113.244,122.881c0.375,0,0.668,0.307,0.668,0.669c0,0.388-0.281,0.669-0.668,0.669
			s-0.668-0.281-0.668-0.669C112.576,123.188,112.869,122.881,113.244,122.881z M112.787,125.695h0.914v5.49h-0.914V125.695z"/>
		<path fill="#FFFFFF" d="M118.135,125.557c1.689,0,2.932,1.172,2.932,2.885s-1.241,2.886-2.932,2.886
			c-1.689,0-2.932-1.173-2.932-2.886S116.445,125.557,118.135,125.557z M118.135,130.48c1.184,0,1.947-0.892,1.947-2.041
			c0-1.147-0.764-2.041-1.947-2.041c-1.183,0-1.947,0.894-1.947,2.041C116.188,129.59,116.951,130.48,118.135,130.48z"/>
		<path fill="#FFFFFF" d="M122.486,126.999c0-0.505-0.047-0.938-0.047-1.304h0.867c0,0.294,0.024,0.6,0.024,0.904h0.021
			c0.248-0.539,0.928-1.045,1.83-1.045c1.443,0,2.088,0.916,2.088,2.24v3.391h-0.914v-3.297c0-0.914-0.397-1.49-1.256-1.49
			c-1.184,0-1.701,0.856-1.701,2.111v2.676h-0.914v-4.187H122.486z"/>
		<path fill="#FFFFFF" d="M129.125,129.743c0.363,0.444,0.762,0.737,1.408,0.737c0.574,0,1.207-0.246,1.207-0.845
			c0-0.587-0.586-0.737-1.172-0.866c-1.045-0.235-1.937-0.457-1.937-1.597c0-1.067,1.033-1.618,2.054-1.618
			c0.772,0,1.487,0.293,1.864,0.997l-0.762,0.505c-0.235-0.388-0.623-0.658-1.162-0.658c-0.504,0-1.08,0.248-1.08,0.764
			c0,0.458,0.658,0.656,1.386,0.798c0.973,0.188,1.795,0.54,1.795,1.644c0,1.242-1.104,1.724-2.193,1.724
			c-0.928,0-1.596-0.246-2.135-1.021L129.125,129.743z"/>
	</g>
	<g>
		<g>
			<path fill="#FFFFFF" d="M37.272,115.646l0.978-1.377c1.405,1.053,2.957,1.652,4.483,1.652c1.552,0,2.681-0.8,2.681-2.054v-0.052
				c0-1.303-1.528-1.803-3.229-2.275c-2.028-0.577-4.283-1.279-4.283-3.657v-0.05c0-2.229,1.854-3.708,4.408-3.708
				c1.576,0,3.33,0.551,4.656,1.429l-0.878,1.453c-1.201-0.775-2.578-1.252-3.828-1.252c-1.527,0-2.505,0.801-2.505,1.876v0.052
				c0,1.227,1.602,1.703,3.33,2.229c2.004,0.601,4.157,1.375,4.157,3.706v0.048c0,2.455-2.031,3.883-4.606,3.883
				C40.782,117.551,38.729,116.824,37.272,115.646z"/>
			<path fill="#FFFFFF" d="M49.843,113.544v-0.049c0-2.782,2.253-4.235,5.531-4.235c1.655,0,2.807,0.227,3.957,0.553v-0.399
				c0-2.306-1.402-3.506-3.828-3.506c-1.531,0-2.731,0.377-3.934,0.924l-0.576-1.575c1.429-0.65,2.806-1.104,4.71-1.104
				c1.824,0,3.253,0.502,4.181,1.429c0.903,0.901,1.351,2.151,1.351,3.808v7.911h-1.903v-1.925c-0.901,1.15-2.378,2.201-4.656,2.201
				C52.245,117.575,49.843,116.197,49.843,113.544z M59.355,112.541v-1.204c-0.946-0.272-2.201-0.55-3.779-0.55
				c-2.403,0-3.78,1.055-3.78,2.607v0.049c0,1.627,1.502,2.58,3.254,2.58C57.431,116.023,59.355,114.596,59.355,112.541z"/>
			<path fill="#FFFFFF" d="M65.314,104.352h1.927v2.182c0.853-1.277,2.007-2.454,4.181-2.454c2.107,0,3.458,1.127,4.16,2.579
				c0.924-1.428,2.304-2.579,4.557-2.579c2.981,0,4.81,2.005,4.81,5.209v8.012h-1.931v-7.562c0-2.504-1.25-3.905-3.357-3.905
				c-1.949,0-3.578,1.451-3.578,4.004v7.463H74.18v-7.61c0-2.433-1.277-3.855-3.331-3.855c-2.053,0-3.606,1.701-3.606,4.082v7.385
				h-1.927v-12.949H65.314z"/>
		</g>
		<g>
			<path fill="#FFFFFF" d="M89.056,113.544v-0.049c0-2.782,2.252-4.235,5.531-4.235c1.655,0,2.808,0.227,3.959,0.553v-0.399
				c0-2.306-1.403-3.506-3.834-3.506c-1.524,0-2.728,0.377-3.931,0.924l-0.576-1.575c1.428-0.65,2.803-1.104,4.706-1.104
				c1.83,0,3.256,0.502,4.185,1.429c0.9,0.901,1.354,2.151,1.354,3.808v7.911h-1.903v-1.925c-0.902,1.15-2.378,2.201-4.654,2.201
				C91.459,117.575,89.056,116.197,89.056,113.544z M98.57,112.541v-1.204c-0.954-0.272-2.202-0.55-3.781-0.55
				c-2.402,0-3.782,1.055-3.782,2.607v0.049c0,1.627,1.503,2.58,3.255,2.58C96.641,116.023,98.57,114.596,98.57,112.541z"/>
			<path fill="#FFFFFF" d="M104.525,104.352h1.926v3.381c0.955-2.151,2.834-3.705,5.287-3.604v2.079h-0.152
				c-2.828,0-5.135,2.029-5.135,5.936v5.157h-1.926V104.352z"/>
			<path fill="#FFFFFF" d="M113.313,110.891v-0.05c0-3.659,2.855-6.763,6.637-6.763c2.455,0,3.984,1.027,5.185,2.303l-1.276,1.352
				c-1.025-1.074-2.18-1.95-3.932-1.95c-2.63,0-4.635,2.227-4.635,5.006v0.054c0,2.803,2.055,5.03,4.762,5.03
				c1.65,0,2.928-0.823,3.955-1.927l1.227,1.154c-1.299,1.447-2.854,2.5-5.284,2.5C116.168,117.6,113.313,114.521,113.313,110.891z"
				/>
			<path fill="#FFFFFF" d="M127.23,110.891v-0.05c0-3.659,2.854-6.763,6.764-6.763c3.881,0,6.732,3.054,6.732,6.709v0.054
				c0,3.655-2.879,6.759-6.783,6.759C130.063,117.6,127.23,114.546,127.23,110.891z M138.754,110.891v-0.05
				c0-2.78-2.078-5.06-4.811-5.06c-2.807,0-4.732,2.279-4.732,5.006v0.054c0,2.779,2.053,5.03,4.783,5.03
				C136.797,115.871,138.754,113.62,138.754,110.891z"/>
		</g>
	</g>
</g>
</svg>
