<?xml version="1.0" encoding="utf-8"?>
<!-- Generator: Adobe Illustrator 16.0.0, SVG Export Plug-In . SVG Version: 6.00 Build 0)  -->
<!DOCTYPE svg PUBLIC "-//W3C//DTD SVG 1.1//EN" "http://www.w3.org/Graphics/SVG/1.1/DTD/svg11.dtd">
<svg version="1.1" id="Capa_1" xmlns="http://www.w3.org/2000/svg" xmlns:xlink="http://www.w3.org/1999/xlink" x="0px" y="0px"
	 width="545px" height="391px" viewBox="0 0 545 391" enable-background="new 0 0 545 391" xml:space="preserve">
<path fill="#FFFFFF" d="M455.999,212.894c-1.142,0-2.276,0.028-3.407,0.071c-17.095-1.137-33.326-10.506-42.535-26.458
	c-8.47-14.672-9.143-31.703-3.313-46.304c10.238-14.498,16.255-32.189,16.255-51.288c0-49.157-39.847-89.006-88.999-89.006
	c-34.228,0-63.937,19.326-78.827,47.659c-9.423,14.052-25.451,23.301-43.64,23.301c-18.423,0-34.625-9.493-43.997-23.852
	C152.552,18.984,123.005-0.091,89-0.091c-49.154,0-89,39.85-89,89.006c0,49.157,39.846,89.007,89,89.007
	c34.206,0,63.899-19.302,78.799-47.605c9.409-14.133,25.483-23.448,43.734-23.448c18.057,0,33.981,9.118,43.431,22.998
	c14.429,27.796,43.085,47.015,76.324,48.011c-0.33,0.191-0.504,0.292-0.505,0.294c18.942-0.597,37.592,8.988,47.73,26.55
	c10.142,17.569,9.112,38.521-0.884,54.633c0.002,0,0.096-0.054,0.265-0.151c-6.943,12.677-10.895,27.226-10.895,42.699
	c0,49.155,39.847,89.007,89,89.007S545,351.057,545,301.901C545,252.745,505.152,212.894,455.999,212.894z"/>
</svg>
