<?xml version="1.0" encoding="utf-8"?>
<!-- Generator: Adobe Illustrator 16.0.0, SVG Export Plug-In . SVG Version: 6.00 Build 0)  -->
<!DOCTYPE svg PUBLIC "-//W3C//DTD SVG 1.1//EN" "http://www.w3.org/Graphics/SVG/1.1/DTD/svg11.dtd">
<svg version="1.1" id="Capa_1" xmlns="http://www.w3.org/2000/svg" xmlns:xlink="http://www.w3.org/1999/xlink" x="0px" y="0px"
	 width="178px" height="178px" viewBox="0 0 178 178" enable-background="new 0 0 178 178" xml:space="preserve">
<g>
	<g>
		<path fill="#FFFFFF" d="M99.129,65.76l1.125-5.625l-5.625,1.125c-2.448-1.605-5.376-2.54-8.522-2.54
			c-8.595,0-15.562,6.967-15.562,15.562c0,3.146,0.934,6.073,2.539,8.521l-1.125,5.627l5.626-1.126
			c2.448,1.605,5.375,2.54,8.521,2.54c8.595,0,15.563-6.968,15.563-15.563C101.669,71.136,100.734,68.208,99.129,65.76z
			 M86.105,87.016c-7.031,0-12.731-5.701-12.731-12.733s5.7-12.733,12.731-12.733s12.731,5.701,12.731,12.733
			S93.137,87.016,86.105,87.016z"/>
		<path fill="#FFFFFF" d="M79.034,67.211l-0.001,12.731l7.075,2.829l7.074-2.829V67.209l-7.074,2.829
			C86.107,70.039,79.144,67.301,79.034,67.211z M90.352,78.267l-4.244,1.675l-4.244-1.675l-0.001-7.077l4.245,1.678l4.244-1.678
			L90.352,78.267z"/>
	</g>
	<g>
		<path fill="#FFFFFF" d="M29,98.568h1.77v3.172l2.498-3.172h2.103l-3.213,4.106l3.525,5.094h-2.077l-2.836-4.088v4.088H29V98.568z"
			/>
		<path fill="#FFFFFF" d="M36.937,98.568h5.022v1.714h-3.284v1.664h3.284v1.683h-3.284v2.42h3.284v1.72h-5.022V98.568z"/>
		<path fill="#FFFFFF" d="M43.597,98.568h5.022v1.714h-3.284v1.664h3.284v1.683h-3.284v2.42h3.284v1.72h-5.022V98.568z"/>
		<path fill="#FFFFFF" d="M58.745,100.069l-1.233,1.22c-0.78-0.825-1.69-1.238-2.729-1.238c-0.906,0-1.664,0.301-2.275,0.9
			c-0.611,0.601-0.917,1.331-0.917,2.189c0,0.888,0.317,1.641,0.952,2.258s1.417,0.926,2.348,0.926c0.605,0,1.116-0.127,1.531-0.382
			c0.416-0.254,0.75-0.652,1.005-1.194h-2.664v-1.645h4.628l0.013,0.388c0,0.805-0.208,1.567-0.625,2.289
			c-0.417,0.721-0.957,1.271-1.62,1.65c-0.663,0.38-1.441,0.569-2.333,0.569c-0.955,0-1.807-0.207-2.555-0.622
			s-1.34-1.006-1.776-1.773c-0.436-0.767-0.654-1.595-0.654-2.482c0-1.218,0.402-2.276,1.208-3.178
			c0.955-1.071,2.197-1.607,3.728-1.607c0.8,0,1.548,0.148,2.245,0.444C57.607,99.031,58.182,99.461,58.745,100.069z"/>
		<path fill="#FFFFFF" d="M63.816,98.568h1.776l3.539,9.2h-1.82l-0.72-1.895h-3.754l-0.749,1.895h-1.82L63.816,98.568z
			 M64.715,101.008l-1.234,3.158h2.461L64.715,101.008z"/>
		<path fill="#FFFFFF" d="M70.491,98.568h1.68l3.937,6.055v-6.055h1.751v9.2h-1.685l-3.932-6.035v6.035h-1.751V98.568z"/>
		<path fill="#FFFFFF" d="M89.311,104.154l1.044,1.194l-0.475,0.431l-0.468,0.425l1.477,1.564h-2.123l-0.607-0.625
			c-0.968,0.571-1.866,0.856-2.696,0.856c-0.705,0-1.275-0.206-1.711-0.619c-0.436-0.413-0.653-0.942-0.653-1.589
			c0-0.487,0.124-0.948,0.37-1.382c0.247-0.434,0.67-0.882,1.269-1.345c-0.592-0.796-0.888-1.501-0.888-2.114
			c0-0.454,0.196-0.902,0.588-1.344c0.392-0.442,0.944-0.663,1.657-0.663c0.721,0,1.275,0.219,1.661,0.656s0.579,0.88,0.579,1.326
			c0,0.351-0.089,0.686-0.266,1.007c-0.177,0.321-0.584,0.796-1.223,1.426c0.747,0.88,1.229,1.429,1.445,1.645
			C88.424,104.904,88.764,104.621,89.311,104.154z M87.024,105.927c-0.322-0.316-0.776-0.841-1.361-1.573
			c-0.617,0.514-0.926,0.962-0.926,1.345c0,0.18,0.084,0.345,0.253,0.494c0.168,0.15,0.382,0.226,0.64,0.226
			C86.002,106.418,86.466,106.254,87.024,105.927z M85.982,102.127c0.463-0.396,0.694-0.746,0.694-1.05
			c0-0.159-0.053-0.288-0.157-0.388c-0.104-0.101-0.242-0.15-0.413-0.15c-0.159,0-0.293,0.056-0.403,0.169
			c-0.111,0.112-0.166,0.243-0.166,0.394C85.538,101.402,85.686,101.744,85.982,102.127z"/>
		<path fill="#FFFFFF" d="M95.846,98.568h2.074c1.337,0,2.331,0.166,2.98,0.498c0.65,0.331,1.186,0.87,1.606,1.616
			s0.631,1.618,0.631,2.614c0,0.709-0.118,1.36-0.354,1.954c-0.235,0.595-0.56,1.088-0.975,1.479
			c-0.414,0.393-0.863,0.663-1.347,0.813c-0.483,0.149-1.32,0.225-2.512,0.225h-2.105V98.568z M97.584,100.258v5.804h0.813
			c0.8,0,1.381-0.092,1.741-0.275s0.655-0.493,0.885-0.927c0.229-0.435,0.345-0.969,0.345-1.603c0-0.978-0.273-1.734-0.819-2.273
			c-0.492-0.483-1.282-0.726-2.371-0.726H97.584z"/>
		<path fill="#FFFFFF" d="M109.151,98.337c1.302,0,2.421,0.472,3.357,1.414s1.405,2.091,1.405,3.446
			c0,1.343-0.463,2.479-1.387,3.408S110.481,108,109.163,108c-1.381,0-2.527-0.478-3.441-1.432
			c-0.914-0.955-1.371-2.089-1.371-3.402c0-0.88,0.213-1.689,0.639-2.427c0.426-0.738,1.011-1.323,1.756-1.755
			C107.489,98.553,108.291,98.337,109.151,98.337z M109.132,100.051c-0.852,0-1.566,0.296-2.147,0.889
			c-0.58,0.592-0.87,1.345-0.87,2.258c0,1.017,0.365,1.821,1.096,2.414c0.568,0.463,1.219,0.694,1.953,0.694
			c0.831,0,1.538-0.301,2.123-0.901c0.584-0.6,0.876-1.34,0.876-2.22c0-0.876-0.294-1.617-0.883-2.224
			C110.691,100.354,109.976,100.051,109.132,100.051z"/>
		<path fill="#FFFFFF" d="M115.571,98.568h1.68l3.937,6.055v-6.055h1.751v9.2h-1.685l-3.932-6.035v6.035h-1.751V98.568z"/>
		<path fill="#FFFFFF" d="M127.847,98.568h1.776l3.538,9.2h-1.82l-0.72-1.895h-3.754l-0.748,1.895h-1.82L127.847,98.568z
			 M128.745,101.008l-1.234,3.158h2.462L128.745,101.008z"/>
		<path fill="#FFFFFF" d="M133.608,98.568h5.085v1.727h-1.677v7.474h-1.776v-7.474h-1.632V98.568z"/>
		<path fill="#FFFFFF" d="M144.237,98.337c1.302,0,2.421,0.472,3.357,1.414s1.405,2.091,1.405,3.446
			c0,1.343-0.462,2.479-1.387,3.408c-0.924,0.93-2.045,1.395-3.363,1.395c-1.381,0-2.528-0.478-3.442-1.432
			c-0.913-0.955-1.37-2.089-1.37-3.402c0-0.88,0.213-1.689,0.638-2.427c0.426-0.738,1.011-1.323,1.756-1.755
			C142.575,98.553,143.378,98.337,144.237,98.337z M144.219,100.051c-0.852,0-1.567,0.296-2.147,0.889
			c-0.58,0.592-0.87,1.345-0.87,2.258c0,1.017,0.365,1.821,1.096,2.414c0.567,0.463,1.219,0.694,1.953,0.694
			c0.83,0,1.538-0.301,2.122-0.901c0.585-0.6,0.877-1.34,0.877-2.22c0-0.876-0.295-1.617-0.883-2.224
			C145.777,100.354,145.062,100.051,144.219,100.051z"/>
	</g>
</g>
</svg>
