<?xml version="1.0" encoding="utf-8"?>
<!-- Generator: Adobe Illustrator 16.0.0, SVG Export Plug-In . SVG Version: 6.00 Build 0)  -->
<!DOCTYPE svg PUBLIC "-//W3C//DTD SVG 1.1//EN" "http://www.w3.org/Graphics/SVG/1.1/DTD/svg11.dtd">
<svg version="1.1" id="Capa_1" xmlns="http://www.w3.org/2000/svg" xmlns:xlink="http://www.w3.org/1999/xlink" x="0px" y="0px"
	 width="178px" height="178px" viewBox="0 0 178 178" enable-background="new 0 0 178 178" xml:space="preserve">
<g>
	<path fill="#FFFFFF" d="M119.953,80.159L120,80.152l-0.001-0.149L119.953,80l0.046-0.003l-7.003-21.837l-0.237-0.026l-0.011-0.021
		l0.077-0.077l-0.078,0.074l-0.12-0.226L89.761,50.19l-0.238-0.022l-21.457,6.971l-0.116,0.194l-0.074-0.078l-0.156,0.193
		l-9.674,21.286l0.061,0.187l-0.029,0.11l-0.055,0.01l0.054-0.006l-0.04,0.154l9.516,23.464l0.312,0.363l23.117,9.188l0.458-0.124
		l0.009,0.019l21.207-9.636l0.055,0.036l0.478-0.353l6.767-21.92L119.953,80.159z M95.05,109.168l18.569-15.164l-1.494,7.294
		L95.05,109.168z M79.955,55.945l9.659-4.583l18.547,6.243L79.955,55.945z M111.943,59.753l1.873,30.903L99.68,71.989
		L111.943,59.753z M77.161,91.509L59.419,78.866l17.676-20.902L77.161,91.509z M74.581,56.23l6.615-2.154l-3.693,1.752L74.581,56.23
		z M79.596,57.083l31.527,1.855L98.854,71.177L79.596,57.083z M98.021,71.999L78.318,91.262l-0.066-33.731L98.021,71.999z
		 M98.849,72.808l14.501,19.148L79.166,92.05L98.849,72.808z M76.257,57.167L60.825,75.416l7.815-17.2L76.257,57.167z M76.854,92.71
		l-8.56,8.696l-8.439-20.81L76.854,92.71z M69.108,102.265l8.606-8.67l11.881,16.812L69.108,102.265z M112.882,93.113
		l-21.605,17.643l-12.4-17.55L112.882,93.113z M118.811,80.358l-3.879,9.585l-1.629-26.901L118.811,80.358z"/>
	<path fill="#FFFFFF" d="M45.483,117.631c-0.363,0-0.669,0.307-0.669,0.67v6.639l-5.118-7.109c-0.2-0.249-0.572-0.313-0.866-0.149
		l-0.114,0.087c-0.134,0.138-0.208,0.313-0.208,0.533v8.697c0,0.362,0.307,0.668,0.669,0.668c0.362,0,0.656-0.3,0.656-0.668v-6.706
		l5.074,7.048c0.119,0.198,0.338,0.326,0.575,0.326c0.362,0,0.656-0.3,0.656-0.668v-8.697
		C46.139,117.932,45.845,117.631,45.483,117.631z"/>
	<path fill="#FFFFFF" d="M52.412,117.436c-2.706,0-4.918,2.328-4.933,5.196c0.015,2.869,2.228,5.204,4.933,5.204
		c2.745,0,4.917-2.285,4.946-5.212C57.329,119.715,55.156,117.436,52.412,117.436z M52.418,126.484
		c-1.979-0.022-3.588-1.752-3.588-3.855c0-2.126,1.607-3.855,3.582-3.855c1.963,0,3.57,1.73,3.582,3.853
		C55.982,124.731,54.373,126.462,52.418,126.484z"/>
	<path fill="#FFFFFF" d="M70.768,117.58l-0.039,0.015v-0.003c-0.169,0-0.333,0.072-0.51,0.261l-3.078,4.272l-3.078-4.272
		l-0.119-0.117c-0.061-0.043-0.205-0.144-0.404-0.144v0.003l-0.039-0.015c-0.363,0-0.669,0.306-0.669,0.668v8.75
		c0,0.368,0.3,0.668,0.669,0.668c0.362,0,0.656-0.3,0.656-0.668v-6.729l2.413,3.354c0.208,0.311,0.68,0.489,1.133,0.013l2.409-3.354
		v6.717c0,0.362,0.3,0.668,0.656,0.668c0.375,0,0.669-0.293,0.669-0.668v-8.75C71.437,117.88,71.137,117.58,70.768,117.58z"/>
	<path fill="#FFFFFF" d="M76.904,117.913c-0.125-0.21-0.347-0.343-0.507-0.343c-0.003,0-0.007,0-0.011,0.001l-0.108-0.009
		c-0.283,0-0.525,0.176-0.609,0.431L72.4,126.71c-0.14,0.332-0.004,0.703,0.315,0.863l0.114,0.026l-0.003,0.011l0.178,0.03
		c0.3,0,0.572-0.222,0.611-0.441l0.75-2.002h3.858l0.791,2.088c0.137,0.223,0.359,0.355,0.595,0.355l0.229-0.053l-0.001-0.004
		l0.049-0.012c0.325-0.163,0.465-0.534,0.334-0.844L76.904,117.913z M74.87,123.857l1.422-3.775l1.422,3.775H74.87z"/>
	<path fill="#FFFFFF" d="M88.331,117.631c-0.363,0-0.669,0.307-0.669,0.67v6.639l-5.117-7.108c-0.199-0.248-0.569-0.315-0.867-0.15
		l-0.115,0.087c-0.133,0.138-0.207,0.313-0.207,0.533v8.697c0,0.362,0.306,0.668,0.669,0.668c0.362,0,0.656-0.3,0.656-0.668v-6.706
		l5.072,7.045c0.119,0.202,0.336,0.329,0.577,0.329c0.362,0,0.656-0.3,0.656-0.668v-8.697
		C88.987,117.932,88.693,117.631,88.331,117.631z"/>
	<path fill="#FFFFFF" d="M92.086,117.514c-0.512,0-0.929,0.417-0.929,0.93v0.273c0,0.301,0.119,0.559,0.326,0.734
		c-0.042,0.089-0.138,0.178-0.341,0.291c-0.216,0.129-0.346,0.351-0.35,0.601c0,0.39,0.306,0.695,0.695,0.695
		c0.341,0,0.802-0.336,1.03-0.563c0.349-0.35,0.497-0.86,0.497-1.707v-0.324C93.016,117.931,92.599,117.514,92.086,117.514z"/>
	<path fill="#FFFFFF" d="M100.409,122.624c-0.604-0.392-1.4-0.674-2.53-0.889c-0.826-0.157-1.449-0.376-1.854-0.651
		c-0.483-0.329-0.549-0.619-0.549-0.859c0-0.359,0.209-0.71,0.586-0.986c0.444-0.321,1.062-0.506,1.695-0.506
		c0.94,0,1.668,0.474,2.396,0.946l0.335,0.092c0.224,0,0.426-0.111,0.527-0.277c0.103-0.149,0.14-0.335,0.102-0.509
		c-0.038-0.172-0.146-0.322-0.277-0.401c-0.735-0.484-1.742-1.147-3.083-1.147c-1.991,0-3.564,1.223-3.581,2.789
		c0,0.778,0.387,1.447,1.119,1.937c0.565,0.376,1.346,0.658,2.32,0.837l0.056,0.021c0.895,0.153,1.571,0.385,2.013,0.688
		c0.545,0.372,0.614,0.718,0.614,0.978c0,0.402-0.237,0.801-0.666,1.119c-0.483,0.355-1.141,0.551-1.85,0.551
		c-1.283,0-2.419-0.797-2.848-1.139l-0.405-0.142c-0.173,0-0.342,0.069-0.498,0.226c-0.112,0.135-0.165,0.313-0.145,0.49
		c0.021,0.18,0.114,0.343,0.242,0.439c0.531,0.429,1.95,1.426,3.656,1.426c2.123,0,3.798-1.303,3.814-2.971
		C101.6,123.857,101.189,123.146,100.409,122.624z"/>
	<path fill="#FFFFFF" d="M112.459,126.341h-4.193v-8.106c0-0.368-0.294-0.668-0.656-0.668c-0.368,0-0.668,0.3-0.668,0.668v8.764
		c0,0.368,0.3,0.668,0.668,0.668h0.027l4.822-0.001c0.375,0,0.669-0.293,0.669-0.668
		C113.128,126.629,112.834,126.341,112.459,126.341z"/>
	<path fill="#FFFFFF" d="M118.205,117.913c-0.129-0.215-0.354-0.369-0.52-0.342l-0.108-0.009c-0.284,0-0.525,0.177-0.607,0.431
		l-3.27,8.717c-0.139,0.331-0.005,0.701,0.313,0.862l0.115,0.027l-0.003,0.01l0.18,0.031c0.302,0,0.567-0.215,0.61-0.441l0.75-2.002
		h3.857l0.79,2.088c0.137,0.223,0.358,0.355,0.594,0.355l0.226-0.051l-0.002-0.005l0.056-0.013c0.324-0.164,0.464-0.534,0.333-0.844
		L118.205,117.913z M116.17,123.857l1.423-3.775l1.423,3.775H116.17z"/>
	<path fill="#FFFFFF" d="M129.63,117.631c-0.362,0-0.669,0.307-0.669,0.67v6.639l-5.119-7.111c-0.2-0.245-0.57-0.313-0.863-0.148
		l-0.116,0.088c-0.132,0.137-0.205,0.312-0.205,0.533v8.697c0,0.362,0.307,0.668,0.669,0.668c0.36,0,0.654-0.3,0.654-0.668v-6.706
		l5.075,7.048c0.118,0.198,0.338,0.326,0.574,0.326c0.362,0,0.656-0.3,0.656-0.668v-8.697
		C130.286,117.932,129.992,117.631,129.63,117.631z"/>
	<path fill="#FFFFFF" d="M134.441,117.566h-1.742c-0.376,0-0.67,0.293-0.67,0.668v8.764c0,0.375,0.294,0.668,0.683,0.668h1.729
		c2.785,0,5.051-2.271,5.051-5.063C139.492,119.826,137.227,117.566,134.441,117.566z M133.354,118.891h1.086
		c2.043,0,3.715,1.667,3.727,3.71c-0.012,2.075-1.651,3.719-3.727,3.741h-1.086V118.891z"/>
</g>
</svg>
