<svg xmlns="http://www.w3.org/2000/svg" xmlns:xlink="http://www.w3.org/1999/xlink" version="1.1" id="Capa_1" x="0px" y="0px" width="178px" height="178px" viewBox="0 0 178 178" enable-background="new 0 0 178 178" xml:space="preserve">
<g>
	<circle fill="#FFFFFF" cx="62.7" cy="96.3" r="2.3"/>
	<circle fill="#FFFFFF" cx="70.3" cy="96.4" r="2.3"/>
	<circle fill="#FFFFFF" cx="78" cy="96.4" r="2.3"/>
	<circle fill="#FFFFFF" cx="85.7" cy="96.4" r="2.3"/>
	<circle fill="#FFFFFF" cx="62.7" cy="89.9" r="2"/>
	<circle fill="#FFFFFF" cx="70.3" cy="89.9" r="2.3"/>
	<circle fill="#FFFFFF" cx="78" cy="90.2" r="2.3"/>
	<circle fill="#FFFFFF" cx="78" cy="83.9" r="2.3"/>
	<circle fill="#FFFFFF" cx="78" cy="77.6" r="2.3"/>
	<circle fill="#FFFFFF" cx="85.7" cy="90" r="2.3"/>
	<circle fill="#FFFFFF" cx="78" cy="71.1" r="2"/>
	<circle fill="#FFFFFF" cx="78" cy="65.1" r="1.7"/>
	<circle fill="#FFFFFF" cx="78" cy="59.8" r="1.2"/>
	<circle fill="#FFFFFF" cx="70.3" cy="77.8" r="1.7"/>
	<circle fill="#FFFFFF" cx="70.3" cy="84" r="2"/>
	<circle fill="#FFFFFF" cx="48.4" cy="96.2" r="2.3"/>
	<circle fill="#FFFFFF" cx="41.5" cy="96.3" r="2.3"/>
	<circle fill="#FFFFFF" cx="48.4" cy="89.1" r="2"/>
	<circle fill="#FFFFFF" cx="85.7" cy="83.8" r="2"/>
	<circle fill="#FFFFFF" cx="70.3" cy="72.7" r="1.2"/>
	<circle fill="#FFFFFF" cx="85.7" cy="78.4" r="1.7"/>
	<circle fill="#FFFFFF" cx="55.3" cy="96.4" r="2.3"/>
	<circle fill="#FFFFFF" cx="62.7" cy="84" r="1.7"/>
	<circle fill="#FFFFFF" cx="93.2" cy="96.3" r="2.3"/>
	<circle fill="#FFFFFF" cx="100.5" cy="96.3" r="2.3"/>
	<circle fill="#FFFFFF" cx="107.6" cy="96.3" r="2.3"/>
	<circle fill="#FFFFFF" cx="114.4" cy="96.3" r="2.3"/>
	<circle fill="#FFFFFF" cx="107.6" cy="90" r="2.3"/>
	<circle fill="#FFFFFF" cx="114.4" cy="90" r="2.3"/>
	<circle fill="#FFFFFF" cx="107.6" cy="83.3" r="2"/>
	<circle fill="#FFFFFF" cx="121.3" cy="96.3" r="2.3"/>
	<circle fill="#FFFFFF" cx="128.6" cy="96.3" r="2.3"/>
	<circle fill="#FFFFFF" cx="136.2" cy="96.3" r="2.3"/>
	<path fill="#FFFFFF" d="M79.166 103v9h3v-3h3.753l2.247 3h2.914l-2.349-2.826c1.287-0.498 1.931-1.203 1.931-2.578 c0-0.459-0.092-0.742-0.266-1.143c-0.201-0.398-0.416-0.676-0.734-0.941c-0.267-0.303-0.679-0.828-1.133-0.961 c-0.467-0.158-0.985-0.551-1.533-0.551H79.166z M88.059 106.738c0 0.318-0.115 0.164-0.345 0.369S87.165 107 86.8 107h-4.59v-2 h4.575c0.419 0 0.7 0.5 1 0.65C87.943 105.8 88.1 106.4 88.1 106.738z"/>
	<path fill="#FFFFFF" d="M48.166 102.096V102h-9v11h3v-4h5.789c1.386 0 2.431-0.24 3.134-0.828c0.703-0.588 1.055-1.42 1.055-2.545 c0-0.512-0.072-0.963-0.267-1.43c-0.2-0.467-0.445-0.795-0.8-1.127c-0.334-0.326-0.752-0.523-1.256-0.723 C49.354 102.2 49.2 102.1 48.2 102.096z M49.161 106.625c-0.311 0.25-0.743 0.375-1.302 0.375h-5.693v-3h5.679 c0.578 0 1 0.2 1.3 0.453c0.305 0.2 0.5 0.6 0.5 1.117C49.624 106 49.5 106.4 49.2 106.625z"/>
	<polygon fill="#FFFFFF" points="77.2,110 69.2,110 69.2,109 74.2,109 74.2,107 69.2,107 69.2,105 76.2,105 76.2,103 66.2,103 66.2,112 77.2,112"/>
	<polygon fill="#FFFFFF" points="64.2,105 64.2,103 54.2,103 54.2,112 64.2,112 64.2,110 56.2,110 56.2,109 61.2,109 61.2,107 56.2,107 56.2,105"/>
	<polygon fill="#FFFFFF" points="104.2,110 96.2,110 96.2,102 93.2,102 93.2,112 104.2,112"/>
	<rect x="106.2" y="105" fill="#FFFFFF" width="3" height="7"/>
	<polygon fill="#FFFFFF" points="133.1,106.6 138.6,103 134.8,103 129.2,107.6 129.2,103 126.2,103 126.2,112 129.2,112 129.2,110.2 131.2,108.3 135.4,112 138.8,112"/>
	<polygon fill="#FFFFFF" points="123.2,103 121.2,103 121.2,109.8 114.9,103 112.2,103 112.2,112 114.2,112 114.2,106 114.5,106 120.3,112 123.2,112"/>
	<circle fill="#FFFFFF" cx="107.6" cy="102.3" r="2.3"/>
</g>
</svg>
