<?xml version="1.0" encoding="UTF-8" standalone="no"?>
<svg
   xmlns:dc="http://purl.org/dc/elements/1.1/"
   xmlns:cc="http://creativecommons.org/ns#"
   xmlns:rdf="http://www.w3.org/1999/02/22-rdf-syntax-ns#"
   xmlns:svg="http://www.w3.org/2000/svg"
   xmlns="http://www.w3.org/2000/svg"
   xmlns:sodipodi="http://sodipodi.sourceforge.net/DTD/sodipodi-0.dtd"
   xmlns:inkscape="http://www.inkscape.org/namespaces/inkscape"
   version="1.1"
   id="Capa_1"
   x="0px"
   y="0px"
   width="178px"
   height="178px"
   viewBox="0 0 178 178"
   enable-background="new 0 0 178 178"
   xml:space="preserve"
   sodipodi:docname="tehah-logo.svg"
   inkscape:version="0.92.3 (2405546, 2018-03-11)"><metadata
   id="metadata93"><rdf:RDF><cc:Work
       rdf:about=""><dc:format>image/svg+xml</dc:format><dc:type
         rdf:resource="http://purl.org/dc/dcmitype/StillImage" /><dc:title></dc:title></cc:Work></rdf:RDF></metadata><defs
   id="defs91" /><sodipodi:namedview
   pagecolor="#ffffff"
   bordercolor="#666666"
   borderopacity="1"
   objecttolerance="10"
   gridtolerance="10"
   guidetolerance="10"
   inkscape:pageopacity="0"
   inkscape:pageshadow="2"
   inkscape:window-width="1920"
   inkscape:window-height="1000"
   id="namedview89"
   showgrid="false"
   inkscape:pagecheckerboard="true"
   inkscape:zoom="5.3033708"
   inkscape:cx="121.62838"
   inkscape:cy="93.352066"
   inkscape:window-x="-11"
   inkscape:window-y="-11"
   inkscape:window-maximized="1"
   inkscape:current-layer="Capa_1" />

<flowRoot
   xml:space="preserve"
   id="flowRoot900"
   style="fill:#ffffff;fill-opacity:1;stroke:none;font-family:sans-serif;font-style:normal;font-weight:normal;font-size:40px;line-height:1.25;letter-spacing:0px;word-spacing:0px;"><flowRegion
     id="flowRegion902"
     style="fill:#ffffff;"><rect
       id="rect904"
       width="147.83051"
       height="91.262711"
       x="27.90678"
       y="41.483051"
       style="fill:#ffffff;" /></flowRegion><flowPara
     id="flowPara906" /></flowRoot>
<style
   id="style942"
   type="text/css">
	.st0{fill:#FFFFFF;}
	.st1{fill:#899A0F;}
	.st2{fill:#6C6965;}
</style><g
   id="g20"
   transform="matrix(0.0979312,0,0,0.0979312,49.000001,75.730322)"><path
     inkscape:connector-curvature="0"
     class="st0"
     d="m 408,0 c 0.7,0 1.3,0 2,0 1.1,0.4 2.1,1 3.2,1.1 12.7,1.5 21,16.4 17,27.7 -3.1,8.9 -5.3,18.2 -7.8,27.3 -2,7.3 -3.9,14.7 -5.8,21.8 10.2,-2.2 19.6,-5.2 29.3,-6.1 18.8,-1.7 37.2,7.3 40.4,28.5 0.3,1.9 1.1,3.8 1.8,6.3 1.2,-2 1.9,-3.3 2.6,-4.6 16.2,-28.3 40,-45.1 73,-47.2 18.3,-1.2 35.8,3.8 52.1,11.5 16.4,7.7 28.1,20 31.5,38.7 0.2,1.2 0.7,2.4 1.5,4.9 0.2,-2.3 0.2,-3.1 0.3,-3.9 0.9,-22.1 1.7,-44.2 2.7,-66.4 0.5,-11.4 5.9,-19.1 14.7,-21.4 21.8,-5.5 43.6,-10.7 65.3,-16.6 16.7,-4.5 31.9,11.1 27.1,26.7 -2.3,7.6 -4.5,15.3 -6.5,23.1 -2.3,8.8 -4.4,17.7 -6.6,26.6 -0.1,0.2 -0.2,0.4 -0.3,0.6 0.2,-0.1 0.5,-0.1 0.7,-0.2 9.5,-2.2 18.9,-5.8 28.6,-6.5 19.4,-1.4 36.3,6.9 40.1,28.7 0.4,2.2 1.3,4.3 2,6.4 0,9 0,18 0,27 -0.4,1.7 -1,3.4 -1.1,5.1 -1.8,33.7 -7,66.9 -15.9,99.4 -1.9,6.9 -5.8,12.2 -12.6,14.4 -15.5,5 -31.3,9.1 -46.8,14.4 -11.4,3.9 -27.1,-5 -27.7,-17 -0.2,-3.5 -1.7,-4.2 -5.1,-3.1 -10.6,3.5 -21.1,7.1 -31.9,10 -8.7,2.3 -16,-1 -21.6,-7.8 -1.9,-2.3 -3,-5.3 -4.6,-8.3 -4,8.3 -10.8,11.8 -19.4,13.5 -14.5,2.8 -28.9,6.3 -43.4,9.6 -7.6,1.7 -14.6,-0.2 -19.7,-5.5 -3.1,-3.1 -5.5,-3.2 -9,-2.2 -21.8,6 -41.4,0.9 -59.7,-11.5 -9.2,-6.2 -16.3,-14.3 -22.3,-24.4 -1.8,6.7 -3.3,12.7 -4.9,18.6 -2,7.3 -6.9,12.1 -14,14.3 -13.8,4.4 -27.6,8.7 -41.5,12.7 -3.8,1.1 -7.9,2.1 -11.7,1.7 -10.8,-1 -17.7,-7 -19.7,-18 -0.6,-3.4 -1.7,-4 -4.9,-2.8 -8.3,3 -16.7,5.8 -25.1,8.3 -4.4,1.3 -9.2,2.6 -13.6,2.1 -14.2,-1.8 -19.5,-11 -19.9,-23.8 -0.5,-17.1 -0.6,-34.3 -0.9,-51.4 0,-1.9 -0.2,-3.7 -0.3,-5.2 -5.8,2 -11.1,3.7 -16.9,5.6 2.6,2.1 4.9,3.9 7.3,5.7 9.7,7.5 11.6,20.7 4.6,30.7 -23.3,33 -64.2,47.5 -102.2,38 C 189,251.3 174.4,236 167,213.6 160.5,194 160.7,174 165.5,154 c 3.8,-16 7,-32.3 15.5,-46.7 2.9,-5 6.4,-9.7 10.3,-15.4 -12.9,2.5 -24.9,4.9 -37,6.9 -3.8,0.6 -5,2.5 -5.3,5.9 -1.4,17.6 -3.2,35.2 -4.2,52.8 -1,19.3 -1.1,38.6 1.9,57.8 0.6,4 -0.8,9.4 -3.2,12.7 -2.9,4 -7.5,7.5 -12.1,9.6 -25.6,11.3 -51.5,22.2 -77.4,33.4 -1.3,0 -2.7,0 -4,0 -1,-0.5 -1.9,-1.2 -2.9,-1.5 -8.8,-2.2 -14.9,-7.8 -15.6,-16.6 -0.7,-10.5 -0.3,-21.2 1.1,-31.7 4.5,-32.7 9.8,-65.4 14.9,-98 0.5,-3.3 -0.1,-3.8 -3.1,-2.9 -5.9,1.8 -11.7,3.6 -17.7,5.2 -6,1.6 -11.4,-0.1 -16.6,-3.1 C 3.7,118.7 2.1,112.2 0,106 c 0,-1.3 0,-2.7 0,-4 0.4,-0.9 0.9,-1.7 1.1,-2.7 4.5,-17.7 8.9,-35.5 13.6,-53.2 2,-7.5 6.7,-12.7 14.5,-14.1 11.9,-2.2 23.9,-4.1 35.9,-5.9 38.3,-5.9 76.6,-11.9 115,-17.3 5.2,-0.7 11.3,0.9 16.1,3.2 9,4.3 10.4,13.4 10.6,22.2 0.4,14.5 0.1,29.1 0.1,43.6 0.2,-0.1 0.8,-0.3 1.3,-0.7 14.1,-10.5 30,-16.5 47.1,-19.5 16.4,-2.8 32.1,0.1 45.7,9.7 7.4,5.3 13.5,12.4 20,18.5 0.1,-0.7 0.4,-2.5 0.4,-4.2 0.6,-13.3 1,-26.6 1.7,-39.9 0.7,-13.1 5.3,-21.8 19.8,-24.8 12,-2.5 23.9,-5.9 35.8,-9 C 388.5,5.3 398.2,2.6 408,0 Z m -17.9,125.7 c 0,-2.1 -0.1,-3.2 0,-4.3 2.4,-17 4.1,-34.1 7.5,-50.9 3,-14.7 7.8,-28.9 11.8,-43.4 1.4,-5 0.6,-6 -3.6,-4.9 -19.2,4.9 -38.4,9.9 -57.6,14.7 -2.9,0.7 -4.1,2.2 -4.2,5.2 -0.2,7.5 -0.7,15 -1,22.5 -0.7,20.3 -1.7,40.6 -1.8,60.9 -0.1,35.6 0.5,71.3 0.6,106.9 0,4.5 1.7,5 5.5,3.7 11.3,-3.9 22.7,-7.7 34.2,-11.3 4.1,-1.2 5.4,-3.3 5.4,-7.5 0.1,-19 0.5,-38 0.9,-57 0,-2.3 -0.2,-5.4 1.1,-6.7 6.7,-6.4 13.7,-12.6 21,-18.3 3.4,-2.6 5.8,-1.2 6.5,3.3 0.5,3.4 0.8,7 0.4,10.4 -3.7,30.6 -7.5,61.1 -11.5,91.6 -0.8,6.3 -0.3,7.1 5.7,5.3 11.5,-3.5 22.8,-7.3 34.4,-10.6 4.7,-1.3 6.6,-3.9 7.8,-8.4 6.7,-26.1 10.5,-52.6 12.5,-79.4 0.9,-12.3 1.2,-24.6 1.2,-36.9 0,-13.1 -5.5,-18.1 -18.3,-18 -14.9,0.1 -27.5,6.3 -38.8,15.2 -6.6,5.4 -12.6,11.4 -19.7,17.9 z m 329.5,-0.3 c -0.6,-0.2 -1.2,-0.3 -1.7,-0.5 2.2,-15.9 3.6,-32 6.9,-47.7 3.5,-16.9 8.8,-33.5 13.3,-50.2 1.3,-4.9 0.4,-5.8 -4.5,-4.6 -18.9,4.8 -37.7,9.7 -56.6,14.4 -3,0.8 -3.9,2.3 -4.1,5.2 -0.5,11.5 -1.4,22.9 -1.7,34.4 -0.6,20.6 -1.1,41.3 -1.2,61.9 -0.1,31 0.1,62 0.2,93 0,5.9 0.7,6.3 6,4.5 11.2,-3.6 22.4,-7.4 33.8,-10.9 3.8,-1.2 5.3,-3 5.3,-7 0.1,-19.1 0.5,-38.3 0.9,-57.4 0,-2.3 -0.2,-5.4 1.2,-6.7 7,-6.5 14.4,-12.7 21.9,-18.7 2.5,-2 5.1,-0.6 5.6,2.4 0.7,4.1 1.4,8.3 0.9,12.4 -3.8,30.9 -7.8,61.7 -11.9,92.6 -0.6,4.8 -0.1,5.3 4.7,3.9 11.5,-3.4 22.9,-7.2 34.4,-10.3 5.4,-1.4 7.8,-4.3 9.1,-9.6 9.2,-36.7 12.8,-74.1 13.7,-111.8 0.1,-3.9 -0.7,-8 -1.7,-11.8 -1.8,-6.7 -5.8,-9.6 -12.6,-10 -11,-0.7 -21.2,1.9 -30.8,7 -12,6.4 -21.9,15.5 -31.1,25.5 z M 186.2,51.2 c -0.1,0 -0.1,0 -0.2,0 0,-5.7 -0.1,-11.3 0,-17 0.1,-4.1 -1.3,-5.4 -5.7,-4.7 -46.9,7.3 -93.8,14.4 -140.7,21.3 -4.1,0.6 -5.7,2.2 -6.6,6 -3.4,14.1 -7.1,28.1 -10.5,42.2 -0.4,1.8 -0.2,3.8 -0.3,5.7 1.8,-0.3 3.6,-0.3 5.3,-0.8 C 41.9,100 56.4,96 70.8,92 c 3.6,-1 4.4,0.1 3.6,3.7 -2.8,12.9 -5.5,25.7 -7.9,38.7 -6.6,36.2 -12.4,72.5 -14.6,109.3 -0.4,6.4 -0.1,6.4 5.7,3.8 21.6,-9.7 43.2,-19.2 64.9,-28.6 3.1,-1.3 3.7,-2.9 3.3,-6.1 -1.1,-9.9 -2.4,-19.9 -2.4,-29.8 0.1,-17.3 0.5,-34.6 1.9,-51.9 1.2,-14.6 4,-29 6.1,-43.5 0.5,-3.8 2.7,-5.6 6.5,-6.4 14.6,-2.7 29.1,-5.7 43.6,-8.4 3.5,-0.6 4.8,-2.1 4.7,-5.6 -0.2,-5.3 0,-10.7 0,-16 z M 568,75.6 c -4,0.3 -8,0.3 -11.9,1 -21.4,4 -36,17 -46.8,35.1 -2,3.4 -1.1,5 2.7,5.9 11,2.5 22.1,5.1 33,8 4.5,1.2 6.3,0.3 8,-4.2 3.8,-10.1 10.6,-18.1 19.7,-23.9 7.1,-4.5 11.5,-2.3 12,6.1 0.7,11 -1.8,21.1 -12.2,27.1 -6.3,3.6 -13,6.9 -19.8,9.3 -8,2.8 -16.5,4.2 -24.5,6.9 -12.4,4.1 -23.2,10.8 -28.4,23.4 -3.1,7.5 -5.1,15.5 -6.8,23.4 -2.1,9.7 1.3,18.2 7.7,25.3 21.5,23.8 53.6,25 74.4,5.6 0.7,-0.6 1.6,-1 2.5,-1.5 0.4,1 1.1,2 1.2,3.1 0.6,4.4 1.1,8.9 1.6,13.4 0.4,3.6 2,4.6 5.8,3.7 12.6,-3 25.4,-5.7 38,-8.5 6.6,-1.5 6.6,-1.7 4.8,-8.4 -6.3,-24.1 -8.2,-48.5 -5.1,-73.3 1.4,-11.4 3.5,-22.7 4.2,-34.1 1,-15.9 -6.9,-27 -21,-33.9 -12.3,-5.9 -25.3,-9.4 -39.1,-9.5 z m -257.5,56.3 c -0.6,-6.3 -0.9,-11 -1.6,-15.6 -3.4,-22.8 -20.1,-39 -41.6,-38.4 -30.5,0.8 -54.5,14.6 -68.8,41.5 -12.3,23.3 -17.4,48.8 -14.6,75.4 2.4,22.8 16.9,40 38.5,43.1 29.6,4.3 54.5,-5.2 73.5,-28.7 2,-2.5 1.8,-4.1 -0.8,-6.1 -9,-6.8 -17.9,-13.9 -26.7,-21 -2.7,-2.2 -4.4,-1.9 -6.4,1 -4,5.9 -8.1,11.8 -12.7,17.3 -6.2,7.5 -13.3,6.7 -17.9,-1.7 -4,-7.4 -4.4,-15.3 -2.7,-23.3 0.4,-1.7 2.3,-3.9 4,-4.4 6.1,-2.1 12.4,-4.3 18.7,-5.1 16.3,-2.1 32.7,-3.5 49.1,-5 3.7,-0.3 5.5,-1.8 6,-5.2 1.6,-8.2 2.9,-16.8 4,-23.8 z m 338.2,0.9 c -7,28.5 -6.5,56.8 0,85 0,-28.3 0,-56.6 0,-85 z M 500.6,137 c -4,-3.6 -8.2,-7.3 -12.5,-11.1 -0.4,7.9 -0.8,15.7 -1.3,23.9 5.2,-4.9 9.7,-9 13.8,-12.8 z"
     id="path4"
     style="fill:#ffffff" /><path
     inkscape:connector-curvature="0"
     class="st1"
     d="m 390.1,125.7 c 7.1,-6.4 13.1,-12.5 19.7,-17.7 11.3,-8.9 23.9,-15.1 38.8,-15.2 12.9,0 18.3,4.9 18.3,18 0,12.3 -0.3,24.7 -1.2,36.9 -2,26.8 -5.8,53.3 -12.5,79.4 -1.2,4.5 -3.1,7.1 -7.8,8.4 -11.5,3.2 -22.9,7 -34.4,10.6 -5.9,1.8 -6.5,1 -5.7,-5.3 4,-30.5 7.8,-61.1 11.5,-91.6 0.4,-3.4 0.1,-7 -0.4,-10.4 -0.7,-4.5 -3.1,-6 -6.5,-3.3 -7.4,5.7 -14.3,11.9 -21,18.3 -1.3,1.3 -1.1,4.4 -1.1,6.7 -0.4,19 -0.8,38 -0.9,57 0,4.2 -1.4,6.2 -5.4,7.5 -11.5,3.5 -22.8,7.4 -34.2,11.3 -3.8,1.3 -5.5,0.7 -5.5,-3.7 -0.2,-35.7 -0.7,-71.3 -0.6,-106.9 0.1,-20.3 1.1,-40.6 1.8,-60.9 0.2,-7.5 0.8,-15 1,-22.5 0.1,-3 1.3,-4.4 4.2,-5.2 19.2,-4.8 38.4,-9.8 57.6,-14.7 4.2,-1.1 5,0 3.6,4.9 -4,14.4 -8.9,28.7 -11.8,43.4 -3.4,16.8 -5.1,33.9 -7.5,50.9 -0.1,0.9 0,2 0,4.1 z"
     id="path6"
     style="fill:#899a0f" /><path
     inkscape:connector-curvature="0"
     class="st1"
     d="m 719.6,125.4 c 9.2,-10 19.1,-19.1 31.1,-25.5 9.6,-5.1 19.8,-7.7 30.8,-7 6.9,0.4 10.8,3.3 12.6,10 1,3.8 1.8,7.9 1.7,11.8 -0.9,37.7 -4.5,75.1 -13.7,111.8 -1.3,5.3 -3.8,8.1 -9.1,9.6 -11.6,3.1 -23,6.9 -34.4,10.3 -4.8,1.4 -5.3,0.9 -4.7,-3.9 4,-30.8 8.1,-61.7 11.9,-92.6 0.5,-4 -0.2,-8.3 -0.9,-12.4 -0.5,-3.1 -3.1,-4.5 -5.6,-2.4 -7.5,6 -14.9,12.2 -21.9,18.7 -1.3,1.2 -1.1,4.4 -1.2,6.7 -0.4,19.1 -0.8,38.3 -0.9,57.4 0,4.1 -1.5,5.9 -5.3,7 -11.3,3.5 -22.5,7.3 -33.8,10.9 -5.3,1.7 -6,1.3 -6,-4.5 -0.1,-31 -0.4,-62 -0.2,-93 0.1,-20.6 0.6,-41.3 1.2,-61.9 0.3,-11.5 1.2,-22.9 1.7,-34.4 0.1,-2.9 1,-4.5 4.1,-5.2 18.9,-4.7 37.8,-9.6 56.6,-14.4 4.9,-1.2 5.8,-0.3 4.5,4.6 -4.5,16.7 -9.7,33.3 -13.3,50.2 -3.3,15.7 -4.6,31.8 -6.9,47.7 0.6,0.1 1.1,0.3 1.7,0.5 z"
     id="path8"
     style="fill:#899a0f" /><path
     inkscape:connector-curvature="0"
     class="st1"
     d="m 186.2,51.2 c 0,5.3 -0.2,10.7 0.1,16 0.1,3.5 -1.3,5 -4.7,5.6 -14.6,2.7 -29.1,5.7 -43.6,8.4 -3.8,0.7 -6,2.6 -6.5,6.4 -2.1,14.5 -4.9,28.9 -6.1,43.5 -1.4,17.2 -1.9,34.6 -1.9,51.9 0,9.9 1.3,19.9 2.4,29.8 0.3,3.1 -0.2,4.7 -3.3,6.1 -21.7,9.4 -43.3,18.9 -64.9,28.6 -5.8,2.6 -6.1,2.6 -5.7,-3.8 2.2,-36.8 7.9,-73.1 14.6,-109.3 2.4,-12.9 5.1,-25.8 7.9,-38.7 0.8,-3.6 -0.1,-4.7 -3.6,-3.7 -14.4,4 -28.9,8 -43.3,11.9 -1.7,0.5 -3.5,0.5 -5.3,0.8 0.1,-1.9 -0.1,-3.9 0.3,-5.7 3.5,-14.1 7.1,-28.1 10.5,-42.2 0.9,-3.7 2.5,-5.4 6.6,-6 46.9,-6.9 93.8,-14 140.7,-21.3 4.4,-0.7 5.8,0.6 5.7,4.7 -0.1,5.7 0,11.3 0,17 0,0 0,0 0.1,0 z"
     id="path10"
     style="fill:#899a0f" /><path
     inkscape:connector-curvature="0"
     class="st1"
     d="m 568,75.6 c 13.8,0.1 26.8,3.6 39,9.6 14,6.8 22,17.9 21,33.9 -0.7,11.4 -2.8,22.8 -4.2,34.1 -3.1,24.8 -1.2,49.2 5.1,73.3 1.8,6.7 1.8,6.9 -4.8,8.4 -12.7,2.9 -25.4,5.5 -38,8.5 -3.7,0.9 -5.3,-0.1 -5.8,-3.7 -0.5,-4.5 -1,-8.9 -1.6,-13.4 -0.1,-1.1 -0.8,-2 -1.2,-3.1 -0.8,0.5 -1.8,0.9 -2.5,1.5 -20.8,19.4 -52.9,18.2 -74.4,-5.6 -6.4,-7.1 -9.9,-15.6 -7.7,-25.3 1.7,-7.9 3.7,-15.9 6.8,-23.4 5.2,-12.6 16,-19.3 28.4,-23.4 8,-2.7 16.5,-4.1 24.5,-6.9 6.8,-2.4 13.5,-5.7 19.8,-9.3 10.5,-5.9 12.9,-16 12.2,-27.1 -0.5,-8.4 -5,-10.7 -12,-6.1 -9.1,5.8 -15.9,13.8 -19.7,23.9 -1.7,4.5 -3.5,5.4 -8,4.2 -10.9,-3 -22,-5.5 -33,-8 -3.8,-0.9 -4.7,-2.5 -2.7,-5.9 10.8,-18.1 25.5,-31.1 46.8,-35.1 4,-0.8 8.1,-0.8 12,-1.1 z M 541.1,186 c 0,0.8 -0.1,1.7 0,2.5 1.3,6.3 3,12.7 9.7,15.2 6.6,2.5 11.8,-1.1 16.6,-5.3 5,-4.4 7.6,-10.1 8.5,-16.5 1.4,-10 2.5,-20.1 3.8,-30.1 0.5,-3.7 -1.4,-3.4 -3.8,-2.5 -9.8,3.7 -18.4,9.2 -25.5,17 -5.1,5.5 -9.2,11.7 -9.3,19.7 z"
     id="path12"
     style="fill:#899a0f" /><path
     inkscape:connector-curvature="0"
     class="st1"
     d="m 310.5,131.9 c -1.1,7 -2.4,15.5 -3.8,24 -0.5,3.4 -2.3,4.9 -6,5.2 -16.4,1.4 -32.8,2.9 -49.1,5 -6.4,0.8 -12.6,3 -18.7,5.1 -1.7,0.6 -3.7,2.7 -4,4.4 -1.7,8 -1.3,15.9 2.7,23.3 4.6,8.4 11.7,9.1 17.9,1.7 4.6,-5.5 8.7,-11.4 12.7,-17.3 2,-3 3.6,-3.2 6.4,-1 8.8,7.1 17.7,14.1 26.7,21 2.6,2 2.8,3.5 0.8,6.1 -19,23.6 -43.9,33 -73.5,28.7 C 201,235 186.4,217.8 184.1,195 c -2.8,-26.6 2.3,-52.2 14.6,-75.4 14.2,-26.9 38.3,-40.7 68.8,-41.5 21.4,-0.6 38.2,15.6 41.6,38.4 0.5,4.5 0.8,9.1 1.4,15.4 z m -43.1,-5 c 0.2,0 0.3,-0.1 0.5,-0.1 -1,-5.5 -1.5,-11.2 -3.2,-16.6 -2.9,-9.2 -9.2,-10.2 -15.3,-2.8 -8.5,10.4 -13.6,22.4 -16.7,35.3 -0.8,3.2 -0.2,4.3 3.3,3.4 6.3,-1.5 12.7,-2.7 19,-4.2 13.7,-3.1 11,-0.8 12.3,-14.6 0.2,0 0.1,-0.2 0.1,-0.4 z"
     id="path14"
     style="fill:#899a0f" /><path
     inkscape:connector-curvature="0"
     class="st0"
     d="m 541.1,186 c 0.1,-8 4.2,-14.2 9.3,-19.8 7.1,-7.7 15.7,-13.3 25.5,-17 2.4,-0.9 4.3,-1.2 3.8,2.5 -1.3,10 -2.4,20.1 -3.8,30.1 -0.9,6.4 -3.5,12.1 -8.5,16.5 -4.8,4.2 -9.9,7.8 -16.6,5.3 -6.8,-2.6 -8.4,-8.9 -9.7,-15.2 -0.2,-0.7 0,-1.6 0,-2.4 z"
     id="path16"
     style="fill:#ffffff" /><path
     inkscape:connector-curvature="0"
     class="st0"
     d="m 267.4,126.9 c 0,0.2 0,0.3 0,0.5 -1.4,13.8 1.3,11.5 -12.3,14.6 -6.3,1.4 -12.7,2.6 -19,4.2 -3.5,0.9 -4.1,-0.3 -3.3,-3.4 3.1,-13 8.2,-25 16.7,-35.3 6.1,-7.4 12.4,-6.3 15.3,2.8 1.7,5.3 2.2,11 3.2,16.6 -0.2,0 -0.4,0 -0.6,0 z"
     id="path18"
     style="fill:#ffffff" /></g></svg>