<?xml version="1.0" encoding="utf-8"?>
<!-- Generator: Adobe Illustrator 16.0.0, SVG Export Plug-In . SVG Version: 6.00 Build 0)  -->
<!DOCTYPE svg PUBLIC "-//W3C//DTD SVG 1.1//EN" "http://www.w3.org/Graphics/SVG/1.1/DTD/svg11.dtd">
<svg version="1.1" id="Capa_1" xmlns="http://www.w3.org/2000/svg" xmlns:xlink="http://www.w3.org/1999/xlink" x="0px" y="0px"
	 width="100px" height="100px" viewBox="0 0 100 100" enable-background="new 0 0 100 100" xml:space="preserve">
<path fill-rule="evenodd" clip-rule="evenodd" fill="#FFFFFF" d="M53.393,50.052l10.24,10.239c0.943,0.944,0.943,2.475,0,3.418
	c-0.944,0.944-2.475,0.944-3.418,0L49.975,53.47L39.666,63.778c-0.951,0.951-2.494,0.951-3.444,0c-0.952-0.951-0.952-2.493,0-3.444
	l10.31-10.31l-10.24-10.239c-0.943-0.943-0.943-2.474,0-3.417c0.943-0.944,2.474-0.944,3.418,0l10.239,10.239l10.386-10.386
	c0.951-0.951,2.493-0.951,3.444,0s0.951,2.494,0,3.445L53.393,50.052z"/>
</svg>
