<?xml version="1.0" encoding="utf-8"?>
<!-- Generator: Adobe Illustrator 16.0.0, SVG Export Plug-In . SVG Version: 6.00 Build 0)  -->
<!DOCTYPE svg PUBLIC "-//W3C//DTD SVG 1.1//EN" "http://www.w3.org/Graphics/SVG/1.1/DTD/svg11.dtd">
<svg version="1.1" id="Capa_1" xmlns="http://www.w3.org/2000/svg" xmlns:xlink="http://www.w3.org/1999/xlink" x="0px" y="0px"
	 width="100px" height="100px" viewBox="0 0 100 100" enable-background="new 0 0 100 100" xml:space="preserve">
<path fill-rule="evenodd" clip-rule="evenodd" fill="#FFFFFF" d="M64.842,34.67c-0.886-0.894-2.322-0.894-3.209,0L46.39,50.041l0,0
	l-0.211,0.213l-0.592,0.597l0,0l-1.604,1.617l-0.439-0.442l-1.968-1.984h-0.001l-3.209-3.235c-0.886-0.895-2.322-0.895-3.209,0
	c-0.886,0.894-0.886,2.342,0,3.235l3.209,3.236l0,0l3.21,3.235l0,0l0.802,0.81c0.887,0.894,2.323,0.894,3.209,0
	c0.299-0.302,0.459-0.673,0.557-1.058l0.246,0.248l3.209-3.235l0,0l15.243-15.371C65.729,37.013,65.729,35.563,64.842,34.67z"/>
</svg>
