<?xml version="1.0" encoding="utf-8"?>
<!-- Generator: Adobe Illustrator 16.0.0, SVG Export Plug-In . SVG Version: 6.00 Build 0)  -->
<!DOCTYPE svg PUBLIC "-//W3C//DTD SVG 1.1//EN" "http://www.w3.org/Graphics/SVG/1.1/DTD/svg11.dtd">
<svg version="1.1" id="Capa_1" xmlns="http://www.w3.org/2000/svg" xmlns:xlink="http://www.w3.org/1999/xlink" x="0px" y="0px"
	 width="78px" height="40px" viewBox="0 0 78 40" enable-background="new 0 0 78 40" xml:space="preserve">
<path fill="#3F535D" d="M4.47,26.877c1.677-0.957,3.675-0.814,5.187,0.176l-0.028-0.05c0,0,1.025,0.901,3.908-0.748
	c2.883-1.647,2.606-2.976,2.606-2.976l0.01,0.017c-0.093-1.777,0.778-3.542,2.441-4.491c0.082-0.047,0.167-0.07,0.249-0.111h-0.039
	c0,0,1.299-0.446,1.299-3.724c0-3.277-1.299-3.724-1.299-3.724h0.031c-0.827-0.414-1.55-1.059-2.048-1.914
	c-1.363-2.336-0.553-5.327,1.808-6.676c2.361-1.351,5.381-0.55,6.744,1.787c1.365,2.339,0.555,5.33-1.806,6.679
	c-0.089,0.051-0.184,0.078-0.274,0.122l0.041,0c0,0-1.299,0.428-1.299,3.723c0,2.627,0.823,3.43,1.158,3.649
	c0.884,0.41,1.656,1.074,2.181,1.974c1.364,2.34,0.554,5.33-1.807,6.681c-1.663,0.949-3.642,0.814-5.149-0.153l0.009,0.017
	c0,0-1.039-0.893-3.906,0.747c-2.868,1.639-2.608,2.977-2.608,2.977l-0.029-0.05c0.111,1.792-0.763,3.577-2.44,4.536
	c-2.361,1.35-5.381,0.548-6.745-1.79C1.299,31.217,2.109,28.227,4.47,26.877z M23.175,5.679c-0.672-1.151-2.167-1.549-3.333-0.882
	c-1.166,0.667-1.565,2.146-0.894,3.298c0.674,1.155,2.168,1.553,3.335,0.886C23.448,8.315,23.848,6.835,23.175,5.679z M22.283,25.13
	c1.166-0.667,1.565-2.147,0.892-3.303c-0.672-1.151-2.166-1.549-3.333-0.881c-1.167,0.666-1.566,2.145-0.895,3.298
	C19.622,25.399,21.116,25.797,22.283,25.13z M8.159,33.203c1.166-0.667,1.566-2.146,0.893-3.302
	c-0.672-1.152-2.166-1.549-3.333-0.882c-1.166,0.667-1.566,2.146-0.895,3.299C5.498,33.474,6.993,33.87,8.159,33.203z"/>
<path fill="#3F535D" d="M75.338,33.555c-1.364,2.338-4.385,3.14-6.746,1.79c-1.676-0.959-2.551-2.744-2.44-4.536l-0.028,0.05
	c0,0,0.26-1.338-2.608-2.977c-2.865-1.64-3.905-0.747-3.905-0.747l0.009-0.017c-1.509,0.968-3.487,1.103-5.148,0.153
	c-2.361-1.351-3.172-4.341-1.808-6.681c0.524-0.899,1.297-1.563,2.18-1.974c0.336-0.219,1.159-1.021,1.159-3.649
	c0-3.295-1.299-3.723-1.299-3.723l0.041,0c-0.09-0.044-0.186-0.071-0.273-0.122c-2.361-1.35-3.172-4.34-1.808-6.679
	c1.363-2.337,4.383-3.138,6.745-1.787c2.359,1.349,3.171,4.34,1.808,6.676c-0.499,0.855-1.221,1.5-2.049,1.914h0.03
	c0,0-1.298,0.447-1.298,3.724c0,3.278,1.298,3.724,1.298,3.724h-0.038c0.081,0.041,0.166,0.064,0.249,0.111
	c1.661,0.949,2.533,2.714,2.44,4.491l0.01-0.017c0,0-0.277,1.328,2.606,2.976c2.883,1.649,3.908,0.748,3.908,0.748l-0.029,0.05
	c1.512-0.99,3.51-1.133,5.187-0.176C75.89,28.227,76.701,31.217,75.338,33.555z M55.718,8.982c1.165,0.667,2.66,0.269,3.335-0.886
	c0.671-1.152,0.271-2.631-0.894-3.298c-1.168-0.667-2.663-0.269-3.335,0.882C54.152,6.835,54.552,8.315,55.718,8.982z
	 M59.053,24.244c0.671-1.153,0.271-2.632-0.896-3.298c-1.166-0.668-2.661-0.271-3.333,0.881c-0.672,1.155-0.272,2.636,0.894,3.303
	C56.883,25.797,58.378,25.399,59.053,24.244z M73.176,32.318c0.672-1.153,0.271-2.632-0.896-3.299
	c-1.165-0.667-2.66-0.271-3.332,0.882c-0.674,1.156-0.272,2.635,0.893,3.302C71.007,33.87,72.502,33.474,73.176,32.318z"/>
<path fill="#3F535D" d="M46,15c0-3.866-3.135-7-7-7s-7,3.134-7,7c0,3.526,2.609,6.434,6,6.921V40h2V21.921
	C43.391,21.434,46,18.526,46,15z M39,19c-2.209,0-4-1.79-4-4c0-2.209,1.791-4,4-4s4,1.791,4,4C43,17.21,41.209,19,39,19z"/>
</svg>
